<svg width="50" height="50" viewBox="0 0 50 50" fill="none" xmlns="http://www.w3.org/2000/svg">
<path d="M8.31537 23.2768C6.80482 21.2739 6.15464 19.8033 6.37242 18.8137C6.42048 18.6031 6.49214 18.3983 6.5861 18.2031C4.02346 19.3014 2.2478 20.8707 1.71601 22.9621C1.21057 24.9498 1.63503 26.3657 4.04319 29.9418C4.76787 30.9227 5.55824 31.8553 6.40911 32.7336C6.73724 29.5293 7.37553 26.3629 8.31537 23.2768Z" stroke="white" stroke-width="1.5" stroke-linecap="round" stroke-linejoin="round"/>
<path d="M16.8242 41.0508C14.4253 41.8482 12.8058 42.0034 11.9185 41.4934C11.73 41.3831 11.5546 41.2526 11.3955 41.1044C11.663 43.8467 12.6281 45.9966 14.4814 47.1416C16.2425 48.2297 17.7395 48.2692 21.9333 47.1163C23.1043 46.7395 24.2482 46.2866 25.3575 45.7605C22.3658 44.4615 19.5082 42.8843 16.8242 41.0508Z" stroke="white" stroke-width="1.5" stroke-linecap="round" stroke-linejoin="round"/>
<path d="M14.4805 47.1418C12.6273 45.9968 11.6622 43.8469 11.3946 41.1046C11.2796 39.7944 11.2917 38.4766 11.4309 37.1687C11.7491 34.3345 12.3764 31.5418 13.3022 28.8384C14.0727 26.5274 14.9916 24.2664 16.0535 22.0689C17.1099 19.877 18.0934 17.9214 19.0039 16.2018C16.1118 16.1693 13.2246 16.444 10.393 17.0213C9.81029 18.5983 9.34112 20.0613 8.96309 21.2614C8.74315 21.8975 8.52557 22.5737 8.31435 23.2773C7.37451 26.3634 6.73623 29.5298 6.4081 32.7341C6.39198 32.9073 6.37946 33.0797 6.36581 33.2524C5.96606 38.3166 6.67026 43.1313 9.71897 45.5879C13.366 48.5266 17.7376 48.4475 21.9325 47.1165C17.7387 48.2694 16.2417 48.2299 14.4805 47.1418Z" stroke="white" stroke-width="1.5" stroke-linecap="round" stroke-linejoin="round"/>
<path d="M29.5089 9.82135C27.8077 9.76222 26.2514 9.77444 24.9769 9.79085C24.2949 9.78119 23.575 9.78614 22.8303 9.80553C19.564 9.87797 16.3124 10.258 13.1204 10.9404C12.9483 10.9787 12.7781 11.0203 12.6073 11.0609C7.59865 12.251 3.17174 14.3991 1.74409 18.0169C0.0362822 22.3447 1.46351 26.4194 4.04378 29.9414C1.63562 26.3653 1.21115 24.9494 1.71659 22.9618C2.24838 20.8703 4.02404 19.301 6.58668 18.2027C7.81441 17.6902 9.08959 17.2943 10.3946 17.0204C13.2262 16.4431 16.1134 16.1684 19.0055 16.2009C21.4748 16.2091 23.941 16.3721 26.389 16.6888C28.8298 17.0021 31.0203 17.3199 32.9604 17.6423C32.0988 14.922 30.9417 12.3 29.5089 9.82135Z" stroke="white" stroke-width="1.5" stroke-linecap="round" stroke-linejoin="round"/>
<path d="M41.7502 42.6433C40.073 44.0271 37.7009 44.2677 34.973 43.6712C33.6731 43.374 32.4055 42.9554 31.1874 42.4209C28.5494 41.2454 26.0491 39.794 23.7299 38.092C21.7373 36.6543 19.8401 35.094 18.0499 33.4204C16.2575 31.7481 14.6837 30.2285 13.303 28.8379C12.3772 31.5412 11.7499 34.3339 11.4316 37.1682C12.7728 38.2019 14.0391 39.0939 15.0799 39.8192C15.6256 40.222 16.2106 40.6349 16.8241 41.0505C19.5081 42.884 22.3657 44.4611 25.3574 45.7602C25.5195 45.8289 25.6819 45.8939 25.8444 45.96C30.6059 47.8998 35.4681 48.7273 38.7799 46.6278C42.7418 44.1161 44.0163 39.9926 44.0286 35.6478C43.8448 39.9366 43.3441 41.3281 41.7502 42.6433Z" stroke="white" stroke-width="1.5" stroke-linecap="round" stroke-linejoin="round"/>
<path d="M36.5996 38.5646C36.6279 41.0626 36.276 42.6274 35.5095 43.3021C35.3451 43.4446 35.1651 43.5687 34.9727 43.6723C37.7006 44.2688 40.0727 44.0283 41.7499 42.6444C43.3438 41.3292 43.8445 39.9377 44.0283 35.649C44.0267 34.4351 43.9433 33.2226 43.7786 32.0195C41.6042 34.4203 39.2003 36.612 36.5996 38.5646Z" stroke="white" stroke-width="1.5" stroke-linecap="round" stroke-linejoin="round"/>
<path d="M48.7641 19.7012C47.5656 15.2102 43.9817 12.7409 39.7944 11.3867C43.8747 12.8844 45.0622 13.7838 45.8384 15.6848C46.655 17.685 46.1541 19.9836 44.7356 22.3572C44.0481 23.4831 43.2526 24.5423 42.3598 25.5204C40.4144 27.6273 38.2425 29.5226 35.882 31.1734C33.8803 32.5972 31.788 33.8945 29.6178 35.0576C27.4507 36.2216 25.4986 37.2276 23.7305 38.0925C26.0496 39.7945 28.55 41.2459 31.1879 42.4214C32.5995 41.4833 33.8513 40.5716 34.8727 39.8197C35.4301 39.4324 36.0096 39.0111 36.6004 38.564C39.2011 36.6114 41.605 34.4197 43.7794 32.0188C43.8958 31.8881 44.0087 31.7558 44.1227 31.624C47.4653 27.7586 49.766 23.4554 48.7641 19.7012Z" stroke="white" stroke-width="1.5" stroke-linecap="round" stroke-linejoin="round"/>
<path d="M45.8382 15.6836C45.0621 13.7826 43.8745 12.8832 39.7943 11.3855C38.623 11.0119 37.4275 10.7154 36.2158 10.498C37.8614 13.2822 39.2327 16.2135 40.3111 19.2521C42.7295 19.9974 44.1303 20.811 44.5443 21.7382C44.631 21.9366 44.6951 22.1438 44.7355 22.356C46.1539 19.9824 46.6548 17.6838 45.8382 15.6836Z" stroke="white" stroke-width="1.5" stroke-linecap="round" stroke-linejoin="round"/>
<path d="M22.8291 9.80545C24.2955 7.76813 25.5131 6.70609 26.5355 6.6044C26.7536 6.58443 26.9733 6.58835 27.1905 6.61609C25.3392 4.55258 23.2767 3.37258 21.0948 3.5202C19.0212 3.6605 17.7866 4.49612 15.0809 7.85932C14.3582 8.84276 13.7029 9.872 13.1191 10.9403C16.3111 10.2579 19.5628 9.87789 22.8291 9.80545Z" stroke="white" stroke-width="1.5" stroke-linecap="round" stroke-linejoin="round"/>
<path d="M40.9879 21.2609C40.7865 20.6185 40.5593 19.945 40.3105 19.2528C39.2321 16.2142 37.8608 13.283 36.2152 10.4987C36.125 10.3493 36.0323 10.2025 35.9404 10.0549C33.2446 5.72625 29.8045 2.23912 25.8734 2.01846C21.1708 1.75446 17.6812 4.35197 15.0811 7.85981C17.7867 4.49661 19.0213 3.66099 21.0949 3.52069C23.2768 3.37307 25.3393 4.5531 27.1906 6.61658C28.0653 7.61049 28.8412 8.68374 29.5078 9.82178C30.9406 12.3004 32.0977 14.9224 32.9593 17.6427C33.7145 19.961 34.3194 22.3237 34.7703 24.7166C35.2224 27.1021 35.5927 29.2542 35.8812 31.173C38.2418 29.5221 40.4136 27.6268 42.359 25.5199C41.8903 23.9064 41.3976 22.451 40.9879 21.2609Z" stroke="white" stroke-width="1.5" stroke-linecap="round" stroke-linejoin="round"/>
</svg>
