<svg width="50" height="50" viewBox="0 0 50 50" fill="none" xmlns="http://www.w3.org/2000/svg">
<g clip-path="url(#clip0_2049_284)">
<mask id="mask0_2049_284" style="mask-type:luminance" maskUnits="userSpaceOnUse" x="0" y="0" width="50" height="50">
<path d="M50 0H0V50H50V0Z" fill="white"/>
</mask>
<g mask="url(#mask0_2049_284)">
<path d="M25.9006 1.02275C25.6014 1.01169 25.3023 1 25.0004 1C24.6984 1 24.3993 1.01169 24.1001 1.02275C19.6893 1.21717 15.5217 3.09833 12.4582 6.27762C9.39473 9.45691 7.66941 13.6914 7.63868 18.1064C7.6372 20.4824 8.13894 22.8319 9.11087 25C10.5017 21.9536 12.739 19.3713 15.5561 17.5606C18.3732 15.7499 21.6515 14.7872 25.0004 14.7872C28.3492 14.7872 31.6275 15.7499 34.4446 17.5606C37.2618 19.3713 39.499 21.9536 40.8898 25C41.8618 27.1682 42.3635 29.5176 42.362 31.8937C42.3313 36.3086 40.606 40.5432 37.5425 43.7224C34.479 46.9017 30.3114 48.7829 25.9006 48.9773C32.105 48.7459 37.9782 46.1185 42.2859 41.6472C46.5936 37.1759 49.0004 31.2088 49.0004 25C49.0004 18.7912 46.5936 12.8242 42.2859 8.35286C37.9782 3.88154 32.105 1.25412 25.9006 1.02275Z" stroke="white" stroke-width="1.5" stroke-linecap="round" stroke-linejoin="round"/>
<path d="M40.8895 24.9987C39.4986 28.0451 37.2614 30.6275 34.4443 32.4382C31.6271 34.2488 28.3489 35.2115 25 35.2115C21.6511 35.2115 18.3729 34.2488 15.5557 32.4382C12.7386 30.6275 10.5014 28.0451 9.11051 24.9987C8.13858 22.8306 7.63684 20.4812 7.63832 18.1051C7.66905 13.6901 9.39438 9.45564 12.4579 6.27635C15.5214 3.09706 19.689 1.2159 24.0998 1.02148C17.8953 1.25284 12.0221 3.88027 7.71442 8.3516C3.40674 12.8229 1 18.79 1 24.9987C1 31.2075 3.40674 37.1746 7.71442 41.6459C12.0221 46.1172 17.8953 48.7447 24.0998 48.976C24.399 48.987 24.6981 48.9988 25 48.9988C25.3019 48.9988 25.601 48.987 25.9002 48.976C30.311 48.7816 34.4786 46.9004 37.5421 43.7211C40.6056 40.5419 42.3309 36.3073 42.3617 31.8924C42.3632 29.5163 41.8614 27.1669 40.8895 24.9987Z" stroke="white" stroke-width="1.5" stroke-linecap="round" stroke-linejoin="round"/>
</g>
</g>
<defs>
<clipPath id="clip0_2049_284">
<rect width="50" height="50" fill="white"/>
</clipPath>
</defs>
</svg>
