<svg width="50" height="50" viewBox="0 0 50 50" fill="none" xmlns="http://www.w3.org/2000/svg">
<g clip-path="url(#clip0_2049_297)">
<mask id="mask0_2049_297" style="mask-type:luminance" maskUnits="userSpaceOnUse" x="0" y="0" width="50" height="50">
<path d="M50 0H0V50H50V0Z" fill="white"/>
</mask>
<g mask="url(#mask0_2049_297)">
<path d="M9.97574 26.4447C11.106 25.1094 12.4092 23.9339 13.8502 22.9499C14.2104 22.7042 14.5802 22.478 14.9531 22.2589C18.0092 20.4803 21.4746 19.5441 25.0019 19.5441C28.5293 19.5441 31.9947 20.4803 35.0508 22.2589C35.0472 21.8268 35.0362 21.3939 35.0034 20.9595C34.8711 19.2171 34.5042 17.5011 33.913 15.8588C28.1631 13.7085 21.8407 13.7085 16.0908 15.8586C14.2467 16.5496 12.4906 17.4599 10.8596 18.5703C10.5116 18.8077 10.1732 19.0558 9.83933 19.309C7.18333 21.3239 4.95576 23.8577 3.28909 26.7594C0.878819 30.9314 0.44517 36.6646 2.85537 40.8366C5.26563 45.009 10.4498 47.4997 15.2702 47.4997C18.6098 47.5101 21.9179 46.8492 25.0019 45.5556C24.6472 45.4066 24.2951 45.2494 23.9457 45.084L23.9197 45.0723C23.8974 45.0618 23.8744 45.053 23.8522 45.0423C22.078 44.1879 20.411 43.123 18.8867 41.8699C17.6932 42.0873 16.483 42.1969 15.2702 42.1974C12.3678 42.1974 8.90116 40.6978 7.44999 38.1854C5.99876 35.6735 6.43186 31.9235 7.88358 29.4112C8.49113 28.3608 9.19136 27.3679 9.97574 26.4447Z" stroke="white" stroke-width="1.5" stroke-miterlimit="10"/>
<path d="M40.2909 20.5606C40.2592 20.1409 40.2135 19.7242 40.161 19.3088C39.7397 15.9923 38.6575 12.7962 36.9797 9.91343C34.5695 5.74149 29.8185 2.5 24.9985 2.5C20.1786 2.5 15.4275 5.74252 13.0173 9.91396C11.3394 12.7965 10.2572 15.9924 9.83594 19.3088C10.1698 19.0557 10.5082 18.8076 10.8562 18.5702C12.4872 17.4598 14.2433 16.5495 16.0874 15.8585C16.496 14.7166 17.0062 13.6145 17.6118 12.5657C19.063 10.0538 22.096 7.80234 24.9985 7.80234C27.901 7.80234 30.9339 10.0527 32.3851 12.5652C32.9908 13.6142 33.5011 14.7166 33.9096 15.8587C34.5008 17.501 34.8677 19.217 35 20.9593C35.0328 21.3938 35.0438 21.8267 35.0474 22.2587C35.0564 25.7989 34.1299 29.2773 32.3635 32.3353C30.597 35.3932 28.0546 37.92 24.9985 39.6549C25.3746 39.868 25.7553 40.0749 26.1482 40.2638C27.725 41.0203 29.395 41.5604 31.1137 41.8698C35.839 37.99 39.006 32.5077 40.0246 26.4446C40.3481 24.5013 40.4375 22.5256 40.2909 20.5606Z" stroke="white" stroke-width="1.5" stroke-miterlimit="10"/>
<path d="M46.7117 26.7596C45.0451 23.8575 42.8175 21.3236 40.1613 19.3086C40.2138 19.7239 40.2595 20.1407 40.2913 20.5604C40.4378 22.5254 40.3484 24.5011 40.0249 26.4444C40.8093 27.3677 41.5096 28.3607 42.117 29.4113C43.5683 31.9232 44.0019 35.6731 42.5508 38.185C41.0995 40.6974 37.6329 42.197 34.7304 42.197C33.5177 42.1965 32.3075 42.0869 31.114 41.8696C29.3953 41.5602 27.7253 41.0201 26.1485 40.2635C25.7557 40.0746 25.375 39.8677 24.9989 39.6547C21.9427 37.9198 19.4003 35.393 17.6339 32.335C15.8675 29.2771 14.941 25.7986 14.95 22.2585C14.5771 22.4777 14.2073 22.7039 13.8471 22.9496C12.4061 23.9335 11.1029 25.109 9.97266 26.4443C10.9912 32.5074 14.1583 37.9897 18.8836 41.8696C20.408 43.1226 22.0749 44.1876 23.8491 45.0419C23.8714 45.0526 23.8944 45.0614 23.9167 45.072C23.9253 45.0761 23.9341 45.0795 23.9426 45.0837C24.2919 45.2497 24.644 45.4069 24.9988 45.5552C28.0828 46.8489 31.3909 47.5097 34.7304 47.4994C39.5509 47.4994 44.7351 45.0086 47.1453 40.8362C49.5555 36.6642 49.1213 30.931 46.7117 26.7596Z" stroke="white" stroke-width="1.5" stroke-miterlimit="10"/>
</g>
</g>
<defs>
<clipPath id="clip0_2049_297">
<rect width="50" height="50" fill="white"/>
</clipPath>
</defs>
</svg>
