<svg width="52" height="52" viewBox="0 0 52 52" fill="none" xmlns="http://www.w3.org/2000/svg">
<g clip-path="url(#clip0_2049_419)">
<mask id="mask0_2049_419" style="mask-type:luminance" maskUnits="userSpaceOnUse" x="0" y="0" width="52" height="52">
<path d="M52 0H0V52H52V0Z" fill="white"/>
</mask>
<g mask="url(#mask0_2049_419)">
<path d="M39.5337 9.36137C40.0807 9.93001 40.4426 10.651 40.5717 11.4294C38.6814 11.0618 36.1119 11.638 33.2318 12.9944C32.067 11.9593 30.8966 10.9889 29.7207 10.0831C34.0423 7.95862 37.7149 7.5425 39.5337 9.36137Z" stroke="white" stroke-width="1.5" stroke-linecap="round" stroke-linejoin="round"/>
<path d="M18.7676 39.0059C19.9324 40.0409 21.1027 41.0114 22.2788 41.9173C17.9572 44.0417 14.2846 44.4578 12.4657 42.6389C11.9188 42.0703 11.5569 41.3493 11.4277 40.5709C13.318 40.9385 15.8876 40.3623 18.7676 39.0059Z" stroke="white" stroke-width="1.5" stroke-linecap="round" stroke-linejoin="round"/>
<path d="M39.0059 33.2318C40.0409 32.067 41.0114 30.8966 41.9172 29.7207C44.0416 34.0423 44.4577 37.7149 42.6389 39.5338C42.0703 40.0808 41.3493 40.4427 40.5709 40.5718C40.9385 38.6815 40.3623 36.112 39.0059 33.2318Z" stroke="white" stroke-width="1.5" stroke-linecap="round" stroke-linejoin="round"/>
<path d="M3.81427 6.47655C7.21419 3.07662 14.6612 4.61984 22.7489 9.72709C23.8905 10.4481 25.0416 11.2392 26.2021 12.1004C27.3816 12.9759 28.5608 13.9199 29.7397 14.9324C31.0196 16.0328 32.292 17.2061 33.5428 18.4569C34.8101 19.7242 35.9772 21.0171 37.0364 22.31C36.2204 23.5851 35.3385 24.8168 34.3943 26.0001C31.925 22.8912 29.1085 20.0747 25.9997 17.6054C24.8165 16.6611 23.5848 15.7792 22.3098 14.9631C21.1717 14.2333 19.9889 13.5756 18.7685 12.9938C15.8884 11.6374 13.3189 11.0611 11.4286 11.4287C10.6502 11.5579 9.92927 11.9198 9.36065 12.4668C7.5418 14.2856 7.95789 17.9583 10.0823 22.2798C9.12358 23.5251 8.24361 24.7687 7.44267 26.0001C2.0358 17.6868 0.332 9.95887 3.81427 6.47655Z" stroke="white" stroke-width="1.5" stroke-linecap="round" stroke-linejoin="round"/>
<path d="M14.9635 29.6895C16.0227 30.9825 17.1899 32.2753 18.4572 33.5426C19.7079 34.7934 20.9804 35.9667 22.2603 37.0671C23.4363 38.0781 24.6155 39.0221 25.7978 39.8991C26.9554 40.7583 28.1065 41.5494 29.2511 42.2724C37.3387 47.3796 44.7857 48.9229 48.1857 45.5229L45.5234 48.1852C42.0411 51.6675 34.3133 49.9637 26.0002 44.5567C24.7688 43.7558 23.5288 42.8759 22.2801 41.9171C21.1071 41.0139 19.9367 40.0434 18.7689 39.0057C17.769 38.1171 16.7777 37.1835 15.7949 36.2049C14.8146 35.2246 13.881 34.2332 12.9941 33.2307C13.5759 32.0103 14.2337 30.8276 14.9635 29.6895Z" stroke="white" stroke-width="1.5" stroke-linecap="round" stroke-linejoin="round"/>
<path d="M9.36137 12.4677C9.92999 11.9207 10.651 11.5588 11.4293 11.4297C11.0618 13.32 11.638 15.8896 12.9944 18.7697C11.9593 19.9344 10.9888 21.1048 10.083 22.2808C7.95861 17.9592 7.54252 14.2865 9.36137 12.4677Z" stroke="white" stroke-width="1.5" stroke-linecap="round" stroke-linejoin="round"/>
<path d="M9.72702 29.2506C10.4479 28.109 11.239 26.9579 12.1002 25.7974C12.9757 24.6179 13.9197 23.4387 14.9322 22.2598C16.0326 20.9798 17.2059 19.7074 18.4567 18.4566C19.7239 17.1893 21.0168 16.0221 22.3098 14.9629C23.5848 15.7789 24.8165 16.6609 25.9997 17.6051C22.8909 20.0744 20.0745 22.8909 17.6051 25.9998C16.6609 27.183 15.779 28.4147 14.963 29.6898C14.2332 30.8279 13.5754 32.0106 12.9937 33.231C11.6372 36.1112 11.0611 38.6807 11.4286 40.571C11.5577 41.3494 11.9196 42.0704 12.4666 42.639C14.2854 44.4579 17.958 44.0418 22.2796 41.9174C23.5248 42.8762 24.7648 43.756 25.9997 44.557C17.6866 49.964 9.9588 51.6678 6.47654 48.1855C3.07662 44.7855 4.61986 37.3383 9.72702 29.2506Z" stroke="white" stroke-width="1.5" stroke-linecap="round" stroke-linejoin="round"/>
<path d="M33.5425 33.5433C34.7933 32.2926 35.9667 31.0201 37.067 29.7402C38.0779 28.5642 39.0219 27.385 39.899 26.2026C40.7581 25.045 41.5492 23.8939 42.2722 22.7493C47.3793 14.6616 48.9226 7.2144 45.5227 3.81445L48.185 6.4767C51.6672 9.95903 49.9634 17.6869 44.5566 26.0002C43.7556 27.2315 42.8758 28.4716 41.917 29.7203C41.0138 30.8933 40.0433 32.0637 39.0056 33.2314C38.117 34.2315 37.1834 35.2228 36.2048 36.2056C35.2245 37.1859 34.2332 38.1195 33.2308 39.0064C32.0103 38.4246 30.8276 37.7669 29.6895 37.0371C30.9824 35.9778 32.2753 34.8106 33.5425 33.5433Z" stroke="white" stroke-width="1.5" stroke-linecap="round" stroke-linejoin="round"/>
<path d="M17.605 26C20.0744 29.1089 22.8908 31.9254 25.9996 34.3947C27.1828 35.3389 28.4145 36.2209 29.6895 37.0369C30.8276 37.7668 32.0104 38.4245 33.2308 39.0063C36.1109 40.3627 38.6804 40.9389 40.5707 40.5713C41.3491 40.4422 42.0701 40.0803 42.6387 39.5333C44.4575 37.7144 44.0414 34.0418 41.917 29.7202C42.8758 28.475 43.7557 27.2349 44.5566 26C49.9635 34.3133 51.6673 42.0412 48.1851 45.5235C44.7851 48.9234 37.3381 47.3802 29.2505 42.2729C28.1088 41.552 26.9577 40.761 25.7972 39.8997C24.6177 39.0242 23.4386 38.0802 22.2596 37.0677C20.9798 35.9673 19.7073 34.794 18.4566 33.5432C17.1893 32.2759 16.0221 30.983 14.9629 29.69C15.7789 28.415 16.6608 27.1833 17.605 26Z" stroke="white" stroke-width="1.5" stroke-linecap="round" stroke-linejoin="round"/>
<path d="M6.47675 3.81428C9.95902 0.332001 17.6868 2.03578 25.9999 7.44273C27.2313 8.24366 28.4714 9.12353 29.72 10.0824C30.8931 10.9856 32.0635 11.956 33.2312 12.9938C34.2311 13.8824 35.2225 14.816 36.2052 15.7946C37.1855 16.7749 38.1191 17.7663 39.006 18.7687C38.4242 19.9892 37.7665 21.1719 37.0366 22.31C35.9774 21.017 34.8103 19.7242 33.5429 18.4569C32.2922 17.2061 31.0198 16.0328 29.7399 14.9324C28.5638 13.9214 27.3847 12.9774 26.2023 12.1004C25.0447 11.2412 23.8937 10.4501 22.7491 9.72706C14.6614 4.61983 7.21439 3.07661 3.81445 6.47652L6.47675 3.81428Z" stroke="white" stroke-width="1.5" stroke-linecap="round" stroke-linejoin="round"/>
<path d="M7.44267 26.0004C8.24359 24.769 9.12356 23.5254 10.0823 22.2802C10.9855 21.1071 11.956 19.9368 12.9936 18.769C13.8822 17.7691 14.8158 16.7777 15.7944 15.7949C16.7747 14.8146 17.7661 13.881 18.7684 12.9941C19.9889 13.5759 21.1716 14.2336 22.3098 14.9634C21.0168 16.0227 19.7239 17.1899 18.4567 18.4572C17.2059 19.708 16.0326 20.9804 14.9322 22.2603C13.9213 23.4363 12.9773 24.6155 12.1002 25.798C11.2411 26.9555 10.45 28.1066 9.72703 29.2512C4.61987 37.3389 3.07663 44.7861 6.47654 48.186L3.81426 45.5237C0.332004 42.0415 2.0358 34.3136 7.44267 26.0004Z" stroke="white" stroke-width="1.5" stroke-linecap="round" stroke-linejoin="round"/>
<path d="M34.3946 26.0001C35.3388 24.8168 36.2207 23.5851 37.0367 22.31C37.7665 21.1719 38.4243 19.9892 39.0061 18.7688C40.3625 15.8886 40.9386 13.3191 40.5711 11.4288C40.442 10.6504 40.0801 9.92936 39.5331 9.36072C37.7143 7.54185 34.0417 7.95798 29.7201 10.0824C28.4749 9.1236 27.2349 8.24371 26 7.44274C34.3131 2.03578 42.0409 0.332001 45.5232 3.81428C48.9231 7.21421 47.3799 14.6615 42.2727 22.7492C41.5518 23.8908 40.7607 25.0419 39.8995 26.2025C39.024 27.382 38.08 28.5612 37.0675 29.7401C35.9671 31.02 34.7938 32.2925 33.543 33.5432C32.2758 34.8105 30.9829 35.9777 29.6899 37.0369C28.4149 36.2209 27.1833 35.339 26 34.3947C29.1088 31.9254 31.9252 29.1089 34.3946 26.0001Z" stroke="white" stroke-width="1.5" stroke-linecap="round" stroke-linejoin="round"/>
</g>
</g>
<defs>
<clipPath id="clip0_2049_419">
<rect width="52" height="52" fill="white"/>
</clipPath>
</defs>
</svg>
