<svg width="120" height="120" viewBox="0 0 120 120" fill="none" xmlns="http://www.w3.org/2000/svg">
<g clip-path="url(#clip0_2053_647)">
<mask id="mask0_2053_647" style="mask-type:luminance" maskUnits="userSpaceOnUse" x="0" y="0" width="120" height="120">
<path d="M120 0H0V120H120V0Z" fill="white"/>
</mask>
<g mask="url(#mask0_2053_647)">
<g opacity="0.1">
<path d="M48.4597 46.6855V53.1038L42.5391 56.5433C44.276 57.807 45.877 59.2475 47.3162 60.8415L54.229 56.8255V48.2568C52.2623 47.9083 50.3313 47.3824 48.4597 46.6855Z" stroke="white" stroke-width="1.5" stroke-linecap="round" stroke-linejoin="round"/>
<path d="M42.1152 29.6424L46.5606 32.2257C47.1829 32.5873 47.8191 32.9129 48.4614 33.2205V19.1719L42.1152 22.8617V29.6424Z" stroke="white" stroke-width="1.5" stroke-linecap="round" stroke-linejoin="round"/>
<path d="M24.5008 59.7695L18.4629 63.2776V70.5306L30.7403 63.3978L24.5008 59.7695Z" stroke="white" stroke-width="1.5" stroke-linecap="round" stroke-linejoin="round"/>
<path d="M42.6912 91.1178V84.1523L30.5859 91.1838L36.5825 94.6671L42.6912 91.1178Z" stroke="white" stroke-width="1.5" stroke-linecap="round" stroke-linejoin="round"/>
<path d="M42.6938 84.0801C42.691 81.8364 42.3723 79.6042 41.7468 77.4492L18.3359 91.0491L42.6938 105.189V98.2153L30.5888 91.1833L42.6938 84.1513V84.0801Z" stroke="white" stroke-width="1.5" stroke-linecap="round" stroke-linejoin="round"/>
<path d="M55.3844 81.822V83.7448L59.9998 81.0636V74.0977L54.998 77.0033C55.2505 78.5972 55.3797 80.2082 55.3844 81.822Z" stroke="white" stroke-width="1.5" stroke-linecap="round" stroke-linejoin="round"/>
<path d="M48.417 80.8267C48.0972 74.661 45.6691 68.7916 41.5383 64.1996C40.0942 62.5923 38.4598 61.1666 36.6709 59.9538C36.1751 59.6189 35.6665 59.2995 35.145 58.9955L6.92383 42.5898V77.4364L12.6931 80.957V52.9062L30.7404 63.3989L30.8767 63.4782C36.1645 66.5643 40.0578 71.5685 41.7465 77.4495C42.3719 79.6045 42.6907 81.8367 42.6934 84.0805V105.189L18.3356 91.0493V97.8964L48.4628 115.385V82.2133C48.4628 81.7487 48.4407 81.2875 48.417 80.8267Z" stroke="white" stroke-width="1.5" stroke-linecap="round" stroke-linejoin="round"/>
<path d="M30.877 63.4782L30.7406 63.399L18.4628 70.5315V56.2607L12.6934 52.9062V80.9571L35.9485 67.4471C34.4471 65.8992 32.7408 64.5638 30.877 63.4782Z" stroke="white" stroke-width="1.5" stroke-linecap="round" stroke-linejoin="round"/>
<path d="M54.9996 77.0038C54.0642 70.9859 51.3955 65.3703 47.3194 60.8422C45.1531 58.4613 42.6419 56.4182 39.8694 54.781L36.4815 52.813L12.6931 38.9941L6.92383 42.5909L35.145 58.9965C35.6667 59.2998 36.1753 59.6192 36.6709 59.9548C41.7177 63.3852 45.4474 68.4277 47.2478 74.2548C47.9089 76.3889 48.3016 78.5968 48.417 80.8278C48.4407 81.2885 48.4628 81.7497 48.4628 82.2144V115.386L55.3859 112.558V81.8225C55.3812 80.2088 55.2521 78.5977 54.9996 77.0038Z" stroke="white" stroke-width="1.5" stroke-linecap="round" stroke-linejoin="round"/>
<path d="M29.748 22.4538L36.2848 26.2523L48.4637 19.1713V33.2199C50.3044 34.1002 52.2402 34.7667 54.233 35.2061V8.23047L29.748 22.4538Z" stroke="white" stroke-width="1.5" stroke-linecap="round" stroke-linejoin="round"/>
<path d="M47.5909 46.3558C46.1262 45.7669 44.7054 45.0745 43.3393 44.2837L42.1152 43.5723V49.5367L48.4615 53.1018V46.6836C48.1709 46.5755 47.879 46.4722 47.5909 46.3558Z" stroke="white" stroke-width="1.5" stroke-linecap="round" stroke-linejoin="round"/>
<path d="M42.1176 49.5391L36.4824 52.8127L39.8704 54.7808C40.7911 55.322 41.6832 55.9105 42.5431 56.5437L48.4638 53.1043L42.1176 49.5391Z" stroke="white" stroke-width="1.5" stroke-linecap="round" stroke-linejoin="round"/>
<path d="M71.5389 46.6855V53.1038L77.4595 56.5433C75.7225 57.807 74.1215 59.2475 72.6823 60.8415L65.7695 56.8255V48.2568C67.7362 47.9083 69.6672 47.3824 71.5389 46.6855Z" stroke="white" stroke-width="1.5" stroke-linecap="round" stroke-linejoin="round"/>
<path d="M77.8853 29.6424L73.4399 32.2257C72.8176 32.5873 72.1814 32.9129 71.5391 33.2205V19.1719L77.8853 22.8617V29.6424Z" stroke="white" stroke-width="1.5" stroke-linecap="round" stroke-linejoin="round"/>
<path d="M95.5013 59.7695L101.539 63.2776V70.5306L89.2617 63.3978L95.5013 59.7695Z" stroke="white" stroke-width="1.5" stroke-linecap="round" stroke-linejoin="round"/>
<path d="M77.3086 91.1178V84.1523L89.4138 91.1838L83.4172 94.6671L77.3086 91.1178Z" stroke="white" stroke-width="1.5" stroke-linecap="round" stroke-linejoin="round"/>
<path d="M77.3086 84.0801C77.3114 81.8364 77.6301 79.6042 78.2555 77.4492L101.666 91.0491L77.3086 105.189V98.2153L89.4136 91.1833L77.3086 84.1513V84.0801Z" stroke="white" stroke-width="1.5" stroke-linecap="round" stroke-linejoin="round"/>
<path d="M60.0018 66.8438L53.3398 70.7137C54.11 72.7465 54.6663 74.8537 55 77.0015L60.0018 74.0959L65.0035 77.0015C65.3372 74.8537 65.8935 72.7465 66.6637 70.7138L60.0018 66.8438Z" stroke="white" stroke-width="1.5" stroke-linecap="round" stroke-linejoin="round"/>
<path d="M64.6154 81.822V83.7448L60 81.0636V74.0977L65.0018 77.0033C64.7493 78.5972 64.6201 80.2082 64.6154 81.822Z" stroke="white" stroke-width="1.5" stroke-linecap="round" stroke-linejoin="round"/>
<path d="M71.542 4.61523L65.7727 8.23044L90.2576 22.4537L73.4428 32.2251C72.8205 32.5868 72.1843 32.9124 71.542 33.2199C67.9396 34.9416 63.9968 35.8353 60.0034 35.8353C56.01 35.8353 52.0673 34.9416 48.4649 33.2199C47.8225 32.9123 47.1864 32.5868 46.564 32.2251L29.7492 22.4537L54.2341 8.23048L48.4649 4.61528L17.4805 22.6147L42.1187 36.9324L43.3427 37.6437C46.7171 39.5843 50.4018 40.9278 54.2341 41.6149C54.6294 41.6848 55.0245 41.7548 55.4216 41.8101C58.4607 42.2443 61.5461 42.2443 64.5852 41.8101C64.9823 41.7547 65.3775 41.6848 65.7727 41.6149C69.605 40.9278 73.2897 39.5843 76.6641 37.6437L77.8882 36.9324L102.526 22.6147L71.542 4.61523Z" stroke="white" stroke-width="1.5" stroke-linecap="round" stroke-linejoin="round"/>
<path d="M77.8882 36.9329L76.6641 37.6442C73.2897 39.5849 69.6051 40.9284 65.7727 41.6154C65.3775 41.6853 64.9823 41.7553 64.5853 41.8106C61.5462 42.2448 58.4607 42.2448 55.4216 41.8106C55.0246 41.7552 54.6294 41.6853 54.2342 41.6154C50.4018 40.9284 46.7172 39.5849 43.3428 37.6442L42.1187 36.9329L17.4805 22.6152L17.7598 29.4189L42.1187 43.5742L43.3427 44.2855C44.7088 45.0764 46.1296 45.7688 47.5943 46.3577C47.8825 46.4741 48.1743 46.5774 48.4649 46.6855C50.3365 47.3823 52.2675 47.9082 54.2341 48.2568C54.9185 48.3777 55.6051 48.4774 56.294 48.5556C58.7581 48.8516 61.2487 48.8516 63.7128 48.5556C64.4019 48.478 65.0886 48.3784 65.7727 48.2568C67.7393 47.9082 69.6703 47.3823 71.5419 46.6855C71.8325 46.5774 72.1244 46.4741 72.4126 46.3577C73.8772 45.7688 75.298 45.0764 76.6641 44.2855L77.8882 43.5742L102.247 29.4189L102.526 22.6152L77.8882 36.9329Z" stroke="white" stroke-width="1.5" stroke-linecap="round" stroke-linejoin="round"/>
<path d="M71.5848 80.8267C71.9046 74.661 74.3328 68.7916 78.4635 64.1996C79.9076 62.5923 81.5421 61.1666 83.3309 59.9538C83.8267 59.6189 84.3354 59.2995 84.8568 58.9955L113.078 42.5898V77.4364L107.309 80.957V52.9062L89.2615 63.3989L89.1251 63.4782C83.8373 66.5643 79.9441 71.5685 78.2554 77.4495C77.6299 79.6045 77.3112 81.8367 77.3084 84.0805V105.189L101.666 91.0493V97.8964L71.5391 115.385V82.2133C71.5391 81.7487 71.5612 81.2875 71.5848 80.8267Z" stroke="white" stroke-width="1.5" stroke-linecap="round" stroke-linejoin="round"/>
<path d="M89.132 63.4782L89.2684 63.399L101.546 70.5315V56.2607L107.316 52.9062V80.9571L84.0605 67.4471C85.5619 65.8992 87.2682 64.5638 89.132 63.4782Z" stroke="white" stroke-width="1.5" stroke-linecap="round" stroke-linejoin="round"/>
<path d="M65.0016 77.0038C65.937 70.9859 68.6057 65.3703 72.6818 60.8422C74.8481 58.4613 77.3593 56.4182 80.1318 54.781L83.5197 52.813L107.308 38.9941L113.077 42.5909L84.8562 58.9965C84.3345 59.2998 83.8259 59.6192 83.3303 59.9548C78.2835 63.3852 74.5538 68.4277 72.7534 74.2548C72.0923 76.3889 71.6996 78.5968 71.5842 80.8278C71.5605 81.2885 71.5384 81.7497 71.5384 82.2144V115.386L64.6152 112.558V81.8225C64.6199 80.2087 64.7491 78.5977 65.0016 77.0038Z" stroke="white" stroke-width="1.5" stroke-linecap="round" stroke-linejoin="round"/>
<path d="M90.2545 22.4538L83.7177 26.2523L71.5388 19.1713V33.2199C69.6981 34.1002 67.7623 34.7667 65.7695 35.2061V8.23047L90.2545 22.4538Z" stroke="white" stroke-width="1.5" stroke-linecap="round" stroke-linejoin="round"/>
<path d="M72.4097 46.3558C73.8744 45.7669 75.2951 45.0745 76.6612 44.2836L77.8853 43.5723V49.5367L71.5391 53.1018V46.6836C71.8296 46.5755 72.1215 46.4722 72.4097 46.3558Z" stroke="white" stroke-width="1.5" stroke-linecap="round" stroke-linejoin="round"/>
<path d="M77.8853 49.5391L83.5205 52.8127L80.1325 54.7808C79.2118 55.322 78.3197 55.9105 77.4597 56.5437L71.5391 53.1043L77.8853 49.5391Z" stroke="white" stroke-width="1.5" stroke-linecap="round" stroke-linejoin="round"/>
</g>
</g>
</g>
<defs>
<clipPath id="clip0_2053_647">
<rect width="120" height="120" fill="white"/>
</clipPath>
</defs>
</svg>
