<svg width="120" height="120" viewBox="0 0 120 120" fill="none" xmlns="http://www.w3.org/2000/svg">
<g clip-path="url(#clip0_2053_630)">
<mask id="mask0_2053_630" style="mask-type:luminance" maskUnits="userSpaceOnUse" x="0" y="0" width="120" height="120">
<path d="M120 0H0V120H120V0Z" fill="white"/>
</mask>
<g mask="url(#mask0_2053_630)">
<g opacity="0.1">
<path d="M91.2314 21.6015C92.4936 22.9137 93.3287 24.5776 93.6267 26.3738C89.2645 25.5255 83.3348 26.8553 76.6886 29.9855C74.0005 27.5968 71.2996 25.3573 68.5859 23.2669C78.5588 18.3644 87.034 17.4041 91.2314 21.6015Z" stroke="white" stroke-width="1.5" stroke-linecap="round" stroke-linejoin="round"/>
<path d="M43.3093 90.0137C45.9972 92.4023 48.6981 94.6418 51.4119 96.7323C41.4391 101.635 32.9638 102.595 28.7665 98.3977C27.5042 97.0855 26.6691 95.4216 26.3711 93.6254C30.7334 94.4737 36.663 93.1439 43.3093 90.0137Z" stroke="white" stroke-width="1.5" stroke-linecap="round" stroke-linejoin="round"/>
<path d="M90.0137 76.6867C92.4023 73.9987 94.6418 71.2979 96.7322 68.584C101.635 78.557 102.595 87.0324 98.3976 91.2298C97.0854 92.4921 95.4216 93.3272 93.6254 93.6252C94.4735 89.2629 93.1439 83.3332 90.0137 76.6867Z" stroke="white" stroke-width="1.5" stroke-linecap="round" stroke-linejoin="round"/>
<path d="M8.802 14.945C16.648 7.09899 33.8335 10.6603 52.4973 22.4463C55.1318 24.1099 57.7881 25.9356 60.4663 27.9231C63.1881 29.9435 65.9093 32.122 68.6299 34.4585C71.5835 36.9978 74.5199 39.7055 77.4062 42.592C80.3308 45.5165 83.0242 48.5 85.4686 51.4837C83.5855 54.4262 81.5503 57.2686 79.3713 59.9992C73.6729 52.8249 67.1734 46.3253 59.9992 40.6269C57.2686 38.4478 54.4264 36.4126 51.484 34.5294C48.8575 32.8452 46.1281 31.3273 43.3117 29.9847C36.6654 26.8546 30.7358 25.5248 26.3735 26.3731C24.5773 26.6711 22.9136 27.5062 21.6013 28.7685C17.404 32.9659 18.3642 41.4412 23.2667 51.4141C21.0543 54.2877 19.0236 57.1575 17.1752 59.9992C4.69784 40.8147 0.766011 22.9811 8.802 14.945Z" stroke="white" stroke-width="1.5" stroke-linecap="round" stroke-linejoin="round"/>
<path d="M34.531 68.5156C36.9754 71.4994 39.6687 74.4829 42.5934 77.4074C45.4796 80.2938 48.4161 83.0016 51.3697 85.5409C54.0836 87.8739 56.8048 90.0524 59.5333 92.0763C62.2046 94.059 64.8609 95.8846 67.5023 97.553C86.1661 109.339 103.352 112.9 111.198 105.054L105.054 111.198C97.0178 119.234 79.1845 115.302 60.0003 102.825C57.1586 100.976 54.297 98.9458 51.4154 96.7331C48.7084 94.6488 46.0076 92.4093 43.3128 90.0145C41.0053 87.964 38.7176 85.8095 36.4496 83.5512C34.1874 81.2889 32.0329 79.0011 29.9863 76.6877C31.3289 73.8713 32.8468 71.142 34.531 68.5156Z" stroke="white" stroke-width="1.5" stroke-linecap="round" stroke-linejoin="round"/>
<path d="M21.6035 28.7704C22.9157 27.5082 24.5794 26.673 26.3756 26.375C25.5275 30.7374 26.8571 36.6671 29.9873 43.3135C27.5987 46.0014 25.3592 48.7023 23.2688 51.416C18.3663 41.4432 17.4061 32.9678 21.6035 28.7704Z" stroke="white" stroke-width="1.5" stroke-linecap="round" stroke-linejoin="round"/>
<path d="M22.4461 67.5011C24.1096 64.8665 25.9352 62.2102 27.9227 59.5321C29.9431 56.8101 32.1216 54.0888 34.4581 51.3683C36.9974 48.4145 39.7051 45.4782 42.5914 42.5919C45.5159 39.6673 48.4993 36.9738 51.4832 34.5293C54.4256 36.4125 57.2679 38.4477 59.9984 40.6268C52.8243 46.3252 46.3248 52.8248 40.6264 59.9991C38.4474 62.7297 36.4122 65.572 34.5292 68.5145C32.8449 71.1408 31.327 73.8702 29.9845 76.6866C26.8543 83.3332 25.5246 89.2628 26.3728 93.6251C26.6708 95.4213 27.5059 97.0852 28.7681 98.3974C32.9655 102.595 41.4407 101.634 51.4136 96.732C54.2871 98.9446 57.1487 100.975 59.9984 102.823C40.8143 115.301 22.981 119.233 14.945 111.197C7.09897 103.351 10.6603 86.165 22.4461 67.5011Z" stroke="white" stroke-width="1.5" stroke-linecap="round" stroke-linejoin="round"/>
<path d="M77.4054 77.4059C80.2918 74.5196 82.9995 71.5832 85.5387 68.6295C87.8717 65.9155 90.0502 63.1943 92.0741 60.4658C94.0568 57.7943 95.8823 55.138 97.5507 52.4966C109.336 33.8327 112.898 16.6469 105.052 8.80078L111.196 14.9445C119.232 22.9806 115.3 40.8141 102.822 59.9986C100.974 62.8401 98.9436 65.7019 96.731 68.5835C94.6467 71.2906 92.4072 73.9915 90.0124 76.6862C87.9619 78.9939 85.8075 81.2817 83.5491 83.5496C81.2869 85.8118 78.9991 87.9663 76.686 90.013C73.8695 88.6705 71.1401 87.1526 68.5137 85.4684C71.4975 83.024 74.4809 80.3305 77.4054 77.4059Z" stroke="white" stroke-width="1.5" stroke-linecap="round" stroke-linejoin="round"/>
<path d="M40.6265 60C46.325 67.1742 52.8245 73.6738 59.9986 79.3723C62.7292 81.5513 65.5715 83.5865 68.5138 85.4697C71.1402 87.1539 73.8697 88.6718 76.6861 90.0143C83.3324 93.1445 89.262 94.4743 93.6243 93.626C95.4205 93.3281 97.0843 92.4929 98.3965 91.2306C102.594 87.0332 101.634 78.5578 96.7311 68.5849C98.9437 65.7113 100.974 62.8497 102.823 60C115.3 79.1844 119.232 97.018 111.196 105.054C103.35 112.9 86.1644 109.339 67.5006 97.5528C64.8661 95.8892 62.2097 94.0636 59.5316 92.076C56.8097 90.0557 54.0885 87.8772 51.368 85.5407C48.4144 83.0014 45.4779 80.2936 42.5916 77.4072C39.6671 74.4826 36.9736 71.4991 34.5293 68.5154C36.4124 65.5729 38.4475 62.7306 40.6265 60Z" stroke="white" stroke-width="1.5" stroke-linecap="round" stroke-linejoin="round"/>
<path d="M14.9465 8.80203C22.9825 0.766005 40.8158 4.69781 60 17.1753C62.8417 19.0236 65.7033 21.0541 68.5849 23.2668C71.2919 25.3511 73.9927 27.5906 76.6875 29.9854C78.995 32.0361 81.2827 34.1905 83.5507 36.4487C85.8129 38.711 87.9673 40.9988 90.014 43.3122C88.6714 46.1286 87.1536 48.858 85.4693 51.4843C83.025 48.5006 80.3316 45.5171 77.4069 42.5925C74.5207 39.7062 71.5842 36.9984 68.6306 34.4591C65.9167 32.1261 63.1955 29.9476 60.467 27.9237C57.7957 25.9409 55.1394 24.1153 52.498 22.4469C33.8342 10.661 16.6488 7.09971 8.80273 14.9456L14.9465 8.80203Z" stroke="white" stroke-width="1.5" stroke-linecap="round" stroke-linejoin="round"/>
<path d="M17.1752 59.9989C19.0235 57.1572 21.0542 54.2874 23.2666 51.4138C25.3511 48.7069 27.5906 46.006 29.9852 43.3112C32.0357 41.0036 34.1901 38.7158 36.4485 36.4478C38.7108 34.1856 40.9985 32.0311 43.3117 29.9844C46.1281 31.327 48.8575 32.8449 51.4839 34.5291C48.5001 36.9735 45.5166 39.6671 42.5922 42.5916C39.7058 45.478 36.9981 48.4143 34.4589 51.3681C32.1259 54.0819 29.9474 56.8032 27.9234 59.5318C25.9408 62.2031 24.1153 64.8595 22.4469 67.5008C10.6611 86.1647 7.09976 103.35 14.9457 111.197L8.80199 105.053C0.766018 97.0169 4.69784 79.1833 17.1752 59.9989Z" stroke="white" stroke-width="1.5" stroke-linecap="round" stroke-linejoin="round"/>
<path d="M79.3721 59.9999C81.5511 57.2693 83.5863 54.4269 85.4693 51.4844C87.1536 48.8581 88.6714 46.1287 90.014 43.3123C93.1442 36.6658 94.4738 30.7362 93.6257 26.3738C93.3276 24.5776 92.4925 22.9137 91.2303 21.6015C87.033 17.4041 78.5577 18.3644 68.5848 23.2669C65.7113 21.0543 62.8497 19.0238 60 17.1754C79.1842 4.69779 97.0175 0.766005 105.053 8.80202C112.899 16.648 109.338 33.8339 97.5523 52.4978C95.8888 55.1324 94.0632 57.7888 92.0757 60.4669C90.0553 63.1889 87.8768 65.9101 85.5403 68.6307C83.001 71.5844 80.2933 74.5208 77.407 77.4071C74.4825 80.3317 71.4991 83.0252 68.5152 85.4695C65.5729 83.5864 62.7306 81.5512 60 79.3722C67.1741 73.6737 73.6736 67.1741 79.3721 59.9999Z" stroke="white" stroke-width="1.5" stroke-linecap="round" stroke-linejoin="round"/>
</g>
</g>
</g>
<defs>
<clipPath id="clip0_2053_630">
<rect width="120" height="120" fill="white"/>
</clipPath>
</defs>
</svg>
