<svg width="50" height="50" viewBox="0 0 50 50" fill="none" xmlns="http://www.w3.org/2000/svg">
<path d="M14.4944 8.735C14.3207 8.63485 14.1229 8.58205 13.9216 8.58203C13.718 8.58154 13.5179 8.63387 13.3415 8.73373C13.165 8.83359 13.0185 8.97745 12.9166 9.15079L12.0859 10.5657V27.9632L15.9332 30.1475V9.55191L14.4944 8.735Z" stroke="white" stroke-width="1.5" stroke-linecap="round" stroke-linejoin="round"/>
<path d="M34.0703 19.8516V40.4472L35.5091 41.2641C35.6828 41.3643 35.8805 41.4171 36.082 41.4171C36.2855 41.4176 36.4856 41.3653 36.662 41.2654C36.8384 41.1656 36.985 41.0218 37.0868 40.8484L37.9175 39.4335V22.036L34.0703 19.8516Z" stroke="white" stroke-width="1.5" stroke-linecap="round" stroke-linejoin="round"/>
<path d="M36.0818 45.2008C35.205 45.2008 34.3439 44.9732 33.5853 44.5409L31.2539 43.2172H17.0882C16.782 43.2168 16.4884 43.0971 16.2718 42.8841C16.0553 42.6711 15.9335 42.3824 15.9332 42.0812V34.5184L12.0859 32.334V42.0812C12.0881 43.3853 12.6158 44.6353 13.5534 45.5574C14.4911 46.4795 15.7622 46.9985 17.0882 47.0007H32.9151C33.6679 47.0009 34.4109 46.8337 35.0886 46.5115C35.7663 46.1893 36.3611 45.7205 36.8285 45.1402C36.5815 45.1787 36.3319 45.199 36.0818 45.2008Z" stroke="white" stroke-width="1.5" stroke-linecap="round" stroke-linejoin="round"/>
<path d="M36.8255 4.86043C36.3582 4.28012 35.7634 3.81131 35.0857 3.48913C34.408 3.16694 33.6649 2.99972 32.9122 3H17.0853C16.3325 2.99973 15.5895 3.16695 14.9117 3.48914C14.234 3.81132 13.6392 4.28012 13.1719 4.86043C14.2909 4.6837 15.4376 4.89557 16.4151 5.45968L18.7466 6.78347H32.9122C33.2184 6.78381 33.512 6.90359 33.7285 7.11654C33.9451 7.32949 34.0669 7.61821 34.0672 7.91936V15.4822L37.9144 17.6666V7.91934C37.9152 6.80769 37.5312 5.72888 36.8255 4.86043Z" stroke="white" stroke-width="1.5" stroke-linecap="round" stroke-linejoin="round"/>
<path d="M44.9985 22.6313L44.1679 21.2164L37.9157 17.6665L34.0685 15.4821L28.8472 12.5176L25 14.702L34.0685 19.8509L37.9157 22.0353L43.137 24.9998L44.5757 24.1829C44.8407 24.032 45.0341 23.7839 45.1134 23.493C45.1926 23.2022 45.1513 22.8922 44.9985 22.6313Z" stroke="white" stroke-width="1.5" stroke-linecap="round" stroke-linejoin="round"/>
<path d="M15.9324 30.1489L12.0852 27.9646L6.86396 25L5.4252 25.8169C5.29384 25.8915 5.1787 25.9908 5.08635 26.1091C4.99401 26.2275 4.92628 26.3626 4.88702 26.5066C4.84776 26.6507 4.83774 26.801 4.85754 26.9489C4.87734 27.0968 4.92656 27.2394 5.00241 27.3686L5.83305 28.7835L12.0852 32.3333L15.9324 34.5177L21.1537 37.4822L25.0009 35.2978L15.9324 30.1489Z" stroke="white" stroke-width="1.5" stroke-linecap="round" stroke-linejoin="round"/>
<path d="M48.6499 25C48.2382 26.0365 47.4796 26.904 46.4993 27.4597L44.1679 28.7835L37.9157 39.433L37.085 40.8479C36.9831 41.0213 36.8366 41.1651 36.6602 41.265C36.4837 41.3648 36.2837 41.4171 36.0801 41.4167C35.8787 41.4166 35.6809 41.3638 35.5072 41.2636L34.0685 40.4467L28.8472 37.4822L25 39.6667L31.2522 43.2165L33.5836 44.5402C34.7334 45.189 36.0976 45.3638 37.378 45.0264C38.6585 44.689 39.751 43.8668 40.4168 42.7396L48.3303 29.2603C48.7067 28.6198 48.9309 27.9039 48.9863 27.1662C49.0416 26.4284 48.9266 25.6879 48.6499 25Z" stroke="white" stroke-width="1.5" stroke-linecap="round" stroke-linejoin="round"/>
<path d="M18.7477 6.7847L16.4162 5.46091C15.2664 4.81212 13.9022 4.63732 12.6218 4.97472C11.3414 5.31213 10.2488 6.1343 9.58298 7.26153L1.66953 20.7408C1.29313 21.3813 1.06887 22.0972 1.01353 22.8349C0.958173 23.5727 1.07317 24.3132 1.34991 25.0011C1.76165 23.9646 2.52018 23.0971 3.50049 22.5414L5.83195 21.2176L12.0841 10.5682L12.9148 9.15326C13.0167 8.97992 13.1632 8.83606 13.3396 8.7362C13.5161 8.63634 13.7162 8.58401 13.9198 8.58449C14.1211 8.58451 14.3188 8.63731 14.4926 8.73746L15.9313 9.55438L21.1526 12.5188L24.9998 10.3345L18.7477 6.7847Z" stroke="white" stroke-width="1.5" stroke-linecap="round" stroke-linejoin="round"/>
<path d="M12.0819 42.0818V39.4342L5.82974 28.7848L4.9991 27.3699C4.92325 27.2407 4.87402 27.0981 4.85423 26.9502C4.83443 26.8023 4.84444 26.652 4.88371 26.5079C4.92297 26.3638 4.9907 26.2287 5.08304 26.1104C5.17539 25.9921 5.29053 25.8928 5.42189 25.8182L6.86065 25.0013L12.0819 22.0368V17.668L5.82974 21.2179L3.49828 22.5416C2.35093 23.1954 1.51394 24.2699 1.17073 25.5295C0.827522 26.7891 1.0061 28.1312 1.66731 29.2616L9.58077 42.7408C9.95661 43.381 10.4747 43.9294 11.0964 44.345C11.718 44.7606 12.4272 45.0326 13.1708 45.1407C12.4651 44.2723 12.0811 43.1935 12.0819 42.0818Z" stroke="white" stroke-width="1.5" stroke-linecap="round" stroke-linejoin="round"/>
<path d="M32.9116 6.78516H31.2503L24.9982 10.335L21.1509 12.5193L15.9297 15.4839V19.8527L24.9982 14.7038L28.8454 12.5194L34.0666 9.55484V7.92103C34.0663 7.61988 33.9445 7.33116 33.728 7.11822C33.5114 6.90528 33.2178 6.7855 32.9116 6.78516Z" stroke="white" stroke-width="1.5" stroke-linecap="round" stroke-linejoin="round"/>
<path d="M24.9982 35.2973L21.1509 37.4817L15.9297 40.4463V42.08C15.93 42.3812 16.0518 42.6699 16.2684 42.8829C16.4849 43.0958 16.7785 43.2156 17.0847 43.216H18.7459L24.9982 39.6661L28.8454 37.4817L34.0666 34.5172V30.1484L24.9982 35.2973Z" stroke="white" stroke-width="1.5" stroke-linecap="round" stroke-linejoin="round"/>
<path d="M48.3316 20.7404L40.4181 7.2612C40.0423 6.62102 39.5242 6.07265 38.9025 5.65708C38.2808 5.24151 37.5717 4.96949 36.8281 4.86133C37.5338 5.72979 37.9178 6.80859 37.917 7.92024V10.5677L44.1692 21.2173L44.9998 22.6322C45.1526 22.8932 45.1939 23.2031 45.1146 23.494C45.0354 23.7848 44.842 24.0329 44.577 24.1838L43.1382 25.0007L37.917 27.9652V32.334L44.1692 28.7842L46.5006 27.4604C47.648 26.8066 48.485 25.7321 48.8282 24.4725C49.1714 23.2129 48.9928 21.8708 48.3316 20.7404Z" stroke="white" stroke-width="1.5" stroke-linecap="round" stroke-linejoin="round"/>
</svg>
