<svg width="50" height="50" viewBox="0 0 50 50" fill="none" xmlns="http://www.w3.org/2000/svg">
<path d="M12.0266 15.6152L4.85156 28.2335H12.2047H12.2093L19.3849 15.6152H12.0266Z" stroke="white" stroke-width="1.5" stroke-linecap="round" stroke-linejoin="round"/>
<path d="M26.8418 2.5L23.1631 8.97008L30.4868 21.85L34.166 15.38L26.8418 2.5Z" stroke="white" stroke-width="1.5" stroke-linecap="round" stroke-linejoin="round"/>
<path d="M12.2089 28.2392L12.2119 28.2324H12.2051L12.2089 28.2392Z" stroke="white" stroke-width="1.5" stroke-linecap="round" stroke-linejoin="round"/>
<path d="M23.1612 8.9707H1.25L8.52672 21.768L12.0252 15.615H19.3834L22.996 21.8506H30.4854L23.1612 8.9707Z" stroke="white" stroke-width="1.5" stroke-linecap="round" stroke-linejoin="round"/>
<path d="M4.92914 2.5L1.25 8.97008H23.1612L26.8403 2.5H4.92914Z" stroke="white" stroke-width="1.5" stroke-linecap="round" stroke-linejoin="round"/>
<path d="M23.0476 34.7036L19.2993 28.2335L22.997 21.8508L19.3845 15.6152L12.209 28.2335L23.1648 47.5009L30.4416 34.7036H23.0476Z" stroke="white" stroke-width="1.5" stroke-linecap="round" stroke-linejoin="round"/>
<path d="M12.2093 28.2324L12.2073 28.2372L12.2047 28.2324H4.85156L15.8074 47.4998H23.1652L12.2093 28.2324Z" stroke="white" stroke-width="1.5" stroke-linecap="round" stroke-linejoin="round"/>
<path d="M34.1136 28.2324H19.2969L23.0452 34.7025H37.7922L34.1136 28.2324Z" stroke="white" stroke-width="1.5" stroke-linecap="round" stroke-linejoin="round"/>
<path d="M45.075 8.9707L34.1191 28.238L37.7957 34.7034L48.7516 15.4366L45.075 8.9707Z" stroke="white" stroke-width="1.5" stroke-linecap="round" stroke-linejoin="round"/>
<path d="M30.5181 8.9707L34.1632 15.3806L30.484 21.8506H22.9946L19.2969 28.2333H34.1136L45.0715 8.9707H30.5181Z" stroke="white" stroke-width="1.5" stroke-linecap="round" stroke-linejoin="round"/>
</svg>
