<svg width="50" height="50" viewBox="0 0 50 50" fill="none" xmlns="http://www.w3.org/2000/svg">
<path d="M32.06 8.83521C30.9754 8.19313 29.5331 8.35016 27.918 9.15012C28.6138 9.89119 29.3048 10.6843 29.991 11.5297C30.9818 10.8482 32.1145 10.4143 33.2984 10.2628C33.0357 9.6696 32.6039 9.17188 32.06 8.83521Z" stroke="white" stroke-linecap="round" stroke-linejoin="round"/>
<path d="M20.0105 38.4707C19.0197 39.1523 17.887 39.5862 16.7031 39.7376C16.9658 40.3309 17.3976 40.8286 17.9415 41.1652C19.0261 41.8073 20.4684 41.6503 22.0835 40.8504C21.3877 40.1093 20.6967 39.3161 20.0105 38.4707Z" stroke="white" stroke-linecap="round" stroke-linejoin="round"/>
<path d="M27.8301 36.8424C28.5077 37.4423 29.2303 37.9865 29.9913 38.4699C30.4961 37.8475 30.9955 37.1987 31.4894 36.5234C30.3045 36.67 29.0847 36.7763 27.8301 36.8424Z" stroke="white" stroke-linecap="round" stroke-linejoin="round"/>
<path d="M20.0118 11.5312C19.507 12.1538 19.0076 12.8025 18.5137 13.4777C19.6986 13.3312 20.9184 13.2249 22.173 13.1588C21.4955 12.5588 20.7728 12.0146 20.0118 11.5312Z" stroke="white" stroke-linecap="round" stroke-linejoin="round"/>
<path d="M33.8806 36.1668C33.9608 37.3874 33.7609 38.6102 33.2969 39.7373C33.9292 39.8006 34.5655 39.6661 35.1218 39.3513C36.2064 38.7092 36.7949 37.3499 36.9268 35.5156C35.9531 35.763 34.9377 35.98 33.8806 36.1668Z" stroke="white" stroke-linecap="round" stroke-linejoin="round"/>
<path d="M14.8754 10.6493C13.7908 11.2914 13.2023 12.6507 13.0703 14.485C14.0441 14.2377 15.0595 14.0206 16.1165 13.8339C16.0363 12.6133 16.2363 11.3904 16.7003 10.2634C16.0679 10.2 15.4317 10.3345 14.8754 10.6493Z" stroke="white" stroke-linecap="round" stroke-linejoin="round"/>
<path d="M32.439 29.4035C32.4569 29.3719 32.4736 29.3403 32.4914 29.3086C32.5094 29.3611 32.5263 29.413 32.5439 29.4653C32.4908 29.4759 32.4382 29.4868 32.3848 29.4972C32.4027 29.4657 32.4211 29.4351 32.439 29.4035Z" stroke="white" stroke-linecap="round" stroke-linejoin="round"/>
<path d="M17.558 20.5957C17.5401 20.6273 17.5235 20.659 17.5057 20.6906C17.4877 20.6381 17.4708 20.5862 17.4531 20.5339C17.5063 20.5233 17.5588 20.5124 17.6123 20.502C17.5944 20.5335 17.5759 20.5641 17.558 20.5957Z" stroke="white" stroke-linecap="round" stroke-linejoin="round"/>
<path d="M11.1289 22.6973C11.4022 23.4568 11.7005 24.2247 12.0238 25.0009C12.4925 23.8754 13.0125 22.739 13.5841 21.5918C12.7386 21.8936 11.9177 22.2632 11.1289 22.6973Z" stroke="white" stroke-linecap="round" stroke-linejoin="round"/>
<path d="M17.558 29.4034C17.5759 29.435 17.5945 29.4656 17.6124 29.4971C17.5589 29.4868 17.5063 29.4758 17.4531 29.4652C17.4708 29.4129 17.4876 29.361 17.5056 29.3086C17.5234 29.3402 17.5402 29.3718 17.558 29.4034Z" stroke="white" stroke-linecap="round" stroke-linejoin="round"/>
<path d="M37.9763 25C37.5076 26.1256 36.9875 27.262 36.416 28.4091C37.2614 28.1073 38.0824 27.7377 38.8712 27.3037C38.5978 26.5442 38.2995 25.7763 37.9763 25Z" stroke="white" stroke-linecap="round" stroke-linejoin="round"/>
<path d="M8.4029 25C8.03321 25.5299 7.82873 26.1622 7.81641 26.8136C7.81641 28.0977 8.67015 29.3 10.1533 30.3344C10.4314 29.346 10.7558 28.3357 11.1265 27.3037C10.0556 26.7646 9.12276 25.9756 8.4029 25Z" stroke="white" stroke-linecap="round" stroke-linejoin="round"/>
<path d="M31.4863 13.4766C32.2026 14.4556 32.9023 15.4856 33.5854 16.5667C33.7533 15.665 33.8516 14.7512 33.8793 13.8337C33.1013 13.6967 32.3036 13.5776 31.4863 13.4766Z" stroke="white" stroke-linecap="round" stroke-linejoin="round"/>
<path d="M24.9989 16.192C24.9632 16.192 24.9282 16.1931 24.8926 16.1932C24.928 16.1511 24.9634 16.1101 24.9989 16.0684C25.0343 16.1101 25.0697 16.151 25.1051 16.1931C25.0696 16.193 25.0345 16.1919 24.9989 16.192Z" stroke="white" stroke-linecap="round" stroke-linejoin="round"/>
<path d="M40.7328 15.6855C40.5123 17.0289 40.2153 18.3579 39.8433 19.6657C41.3265 20.7001 42.1803 21.9024 42.1803 23.1865C42.1679 23.8379 41.9634 24.4702 41.5938 25.0002C40.8739 25.9757 39.9411 26.7647 38.8701 27.3038C38.0813 27.7378 37.2604 28.1075 36.415 28.4093C36.25 28.4691 36.0792 28.5262 35.9087 28.5834C34.8057 28.9485 33.6818 29.2434 32.5433 29.4664C32.4904 29.477 32.4381 29.488 32.3848 29.4983C30.89 29.7867 29.3796 29.9824 27.8618 30.0843C26.9307 30.1479 25.9748 30.1818 24.9993 30.1818C24.0237 30.1818 23.0678 30.1479 22.1367 30.0842C22.9816 31.3812 23.9021 32.6246 24.893 33.8079C24.9286 33.808 24.9636 33.809 24.9993 33.809C25.0349 33.8089 25.07 33.8079 25.1056 33.8078C26.6956 33.8047 28.249 33.7342 29.7506 33.6012C31.0511 33.486 32.3104 33.3223 33.5241 33.1184C33.6225 33.1019 33.7204 33.0851 33.8179 33.0679C34.8452 32.8885 35.8349 32.6795 36.787 32.441C37.9698 32.1453 39.0919 31.8087 40.1357 31.4315C45.397 29.5307 48.7495 26.6591 48.7494 23.4456C48.7495 20.3561 45.6476 17.5841 40.7328 15.6855Z" stroke="white" stroke-linecap="round" stroke-linejoin="round"/>
<path d="M22.5718 13.5207C22.4382 13.3978 22.3046 13.2748 22.1716 13.1582C20.919 13.2231 19.6992 13.3294 18.5122 13.4772C17.6958 13.5782 16.8981 13.6972 16.1192 13.8343C15.0638 14.0202 14.0484 14.2372 13.073 14.4854C11.7824 14.809 10.5115 15.2097 9.26664 15.6856C4.35189 17.5843 1.25 20.3563 1.25 23.4458V26.5548C1.25 23.3414 4.60245 20.4698 9.86378 18.5689C10.9076 18.1918 12.0297 17.8552 13.2126 17.5594C14.1631 17.3217 15.1528 17.1128 16.1816 16.9326C16.2793 16.9155 16.3772 16.8987 16.4753 16.882C17.6891 16.6782 18.9484 16.5145 20.2489 16.3993C21.7505 16.2662 23.3039 16.1957 24.8939 16.1926C24.9293 16.1505 24.9648 16.1095 25.0002 16.0678C24.2427 15.1683 23.4316 14.3176 22.5718 13.5207Z" stroke="white" stroke-linecap="round" stroke-linejoin="round"/>
<path d="M39.8443 19.666C39.5663 20.6544 39.2419 21.6647 38.8711 22.6967C39.9421 23.2358 40.8749 24.0248 41.5947 25.0004C41.9644 24.4705 42.1689 23.8382 42.1813 23.1868C42.1813 21.9026 41.3275 20.7004 39.8443 19.666Z" stroke="white" stroke-linecap="round" stroke-linejoin="round"/>
<path d="M16.4111 33.4336C16.2432 34.3353 16.145 35.2491 16.1172 36.1666C16.8953 36.3036 17.6929 36.4226 18.5102 36.5237C17.7939 35.5447 17.0942 34.5146 16.4111 33.4336Z" stroke="white" stroke-linecap="round" stroke-linejoin="round"/>
<path d="M12.8206 31.747C13.0952 30.784 13.4136 29.8007 13.7757 28.7969C13.8102 28.7017 13.8449 28.6063 13.8799 28.5108C14.3147 27.331 14.8077 26.1335 15.359 24.9183C15.9975 23.5183 16.7146 22.1036 17.507 20.6901C17.4891 20.6376 17.4722 20.5856 17.4547 20.5332C16.3162 20.7562 15.1923 21.0511 14.0894 21.4162C13.9188 21.4734 13.748 21.5306 13.583 21.5904C13.0115 22.7352 12.4915 23.8715 12.0228 24.9995C11.6998 25.775 11.4015 26.5429 11.1279 27.3032C10.7571 28.3333 10.4327 29.3436 10.1547 30.3339C9.78266 31.6417 9.48565 32.9708 9.26513 34.3142C8.41129 39.628 9.20146 43.7686 11.8108 45.3134L14.4365 46.8679C11.7226 45.2611 10.9736 40.8483 11.9989 35.2256C12.2023 34.1101 12.479 32.9453 12.8206 31.747Z" stroke="white" stroke-linecap="round" stroke-linejoin="round"/>
<path d="M24.9988 33.8097C25.0345 33.8097 25.0696 33.8086 25.1052 33.8086C25.0698 33.8507 25.0343 33.8916 24.9988 33.9333C24.9634 33.8916 24.928 33.8507 24.8926 33.8086C24.9282 33.8087 24.9632 33.8097 24.9988 33.8097Z" stroke="white" stroke-linecap="round" stroke-linejoin="round"/>
<path d="M32.4383 20.5962C32.4205 20.5646 32.402 20.534 32.3841 20.5024C31.5866 19.092 30.7503 17.7478 29.8871 16.4808C29.1396 15.3836 28.3716 14.3471 27.5926 13.3711C27.5295 13.292 27.4663 13.2135 27.4031 13.1355C26.7379 12.313 26.0666 11.5386 25.3891 10.8123C24.5479 9.90979 23.7025 9.08163 22.8622 8.3433C18.626 4.62141 14.5247 3.0801 11.8107 4.68685C9.20145 6.23161 8.4113 10.3722 9.26514 15.686C10.51 15.2101 11.7809 14.8093 13.0715 14.4858C13.2034 12.6515 13.7919 11.2922 14.8765 10.6501C15.4328 10.3353 16.0691 10.2007 16.7014 10.2641C17.8853 10.4156 19.0181 10.8495 20.0088 11.531C20.7698 12.0144 21.4925 12.5586 22.1701 13.1585C22.3031 13.2751 22.4367 13.3982 22.5703 13.521C23.4301 14.318 24.2411 15.1686 24.9987 16.0681C25.0341 16.1098 25.0695 16.1508 25.1049 16.1929C26.0959 17.3761 27.0163 18.6196 27.8612 19.9166C28.3805 20.7116 28.8851 21.5427 29.3749 22.4098C29.8627 23.2762 30.3119 24.142 30.7238 25.0007C31.3967 23.6019 31.9866 22.1627 32.4905 20.6911C32.4727 20.6595 32.4561 20.6279 32.4383 20.5962Z" stroke="white" stroke-linecap="round" stroke-linejoin="round"/>
<path d="M22.0854 40.8494C20.4702 41.6493 19.0279 41.8064 17.9434 41.1643C17.3994 40.8277 16.9676 40.3299 16.705 39.7367C16.241 38.6096 16.041 37.3868 16.1213 36.1662C16.149 35.2487 16.2473 34.3348 16.4151 33.4331C16.4471 33.2567 16.4843 33.0766 16.5212 32.8965C16.7643 31.7344 17.0773 30.5889 17.4581 29.4664C17.4757 29.4141 17.4925 29.3621 17.5104 29.3097C18.0143 27.838 18.6042 26.3989 19.2771 25.0001C19.689 24.1415 20.1382 23.2756 20.626 22.4093C21.1138 21.5429 21.6204 20.7111 22.1397 19.916C20.6219 20.0179 19.1115 20.2135 17.6167 20.5019C17.5988 20.5335 17.5804 20.5641 17.5626 20.5957C17.5449 20.6273 17.5282 20.659 17.5105 20.6907C16.7181 22.1042 16.0009 23.5189 15.3625 24.9189C14.8096 26.1314 14.3165 27.3289 13.8834 28.5114C13.8482 28.607 13.8135 28.7024 13.7792 28.7975C13.4171 29.7995 13.0988 30.7828 12.8241 31.7476C12.4825 32.9459 12.2057 34.1107 12.0024 35.2262C10.9771 40.8489 11.7261 45.2618 14.44 46.8685C17.0493 48.4133 20.9413 47.0447 25.0022 43.6295C23.9779 42.762 23.0039 41.8337 22.0854 40.8494Z" stroke="white" stroke-linecap="round" stroke-linejoin="round"/>
<path d="M27.1376 41.658C26.2973 40.9196 25.4519 40.0914 24.6107 39.1889C23.9346 38.4635 23.2633 37.6891 22.5967 36.8657C22.5335 36.7875 22.4703 36.709 22.4072 36.6301C21.6282 35.6541 20.8603 34.6176 20.1127 33.5204C19.2495 32.2534 18.4133 30.9093 17.6157 29.4988C17.5624 29.4884 17.5101 29.4774 17.4571 29.4668C17.0762 30.5893 16.7633 31.7349 16.5201 32.8969C16.4832 33.077 16.446 33.2572 16.4141 33.4336C17.0952 34.5135 17.7949 35.5435 18.5132 36.5237C19.0067 37.1982 19.506 37.8471 20.0113 38.4703C20.6959 39.3145 21.3869 40.1077 22.0843 40.8499C23.0028 41.8341 23.9768 42.7624 25.0011 43.6299C29.062 47.0451 32.9541 48.4137 35.5633 46.8689L38.1891 45.3144C35.4751 46.9211 31.3738 45.3798 27.1376 41.658Z" stroke="white" stroke-linecap="round" stroke-linejoin="round"/>
<path d="M40.1364 31.4311C39.0926 31.8083 37.9705 32.1449 36.7877 32.4406C35.8371 32.6783 34.8474 32.8873 33.8186 33.0675C33.7209 33.0846 33.623 33.1014 33.5249 33.118C32.3111 33.3219 31.0518 33.4856 29.7513 33.6008C28.2497 33.7338 26.6963 33.8043 25.1063 33.8074C25.0709 33.8496 25.0354 33.8905 25 33.9323C25.7575 34.8318 26.5686 35.6825 27.4284 36.4794C27.562 36.6022 27.6956 36.7253 27.8286 36.8419C29.0811 36.777 30.3009 36.6707 31.488 36.5229C32.3044 36.4219 33.1021 36.3029 33.881 36.1658C34.9364 35.9799 35.9518 35.7629 36.9272 35.5146C38.2177 35.1911 39.4887 34.7903 40.7335 34.3144C45.6483 32.4158 48.7502 29.6438 48.7502 26.5543V23.4453C48.7502 26.6587 45.3978 29.5303 40.1364 31.4311Z" stroke="white" stroke-linecap="round" stroke-linejoin="round"/>
<path d="M31.4884 13.4767C30.9949 12.8022 30.4955 12.1534 29.9903 11.5302C29.3057 10.6859 28.6147 9.89268 27.9173 9.15058C26.9988 8.1663 26.0248 7.23801 25.0005 6.37049C20.9396 2.95533 17.0475 1.58673 14.4382 3.13153L11.8125 4.68603C14.5265 3.07928 18.6278 4.62059 22.864 8.34246C23.7044 9.08081 24.5497 9.90895 25.3909 10.8115C26.0669 11.5368 26.7383 12.3112 27.4049 13.1347C27.4681 13.2129 27.5313 13.2914 27.5944 13.3702C28.3734 14.3462 29.1414 15.3827 29.8889 16.4799C30.7521 17.7469 31.5884 19.0911 32.3859 20.5016C32.4038 20.5332 32.4223 20.5637 32.4401 20.5954C32.4579 20.627 32.4745 20.6586 32.4923 20.6903C32.5102 20.6378 32.527 20.5859 32.5445 20.5336C32.9254 19.4111 33.2383 18.2655 33.4815 17.1035C33.5184 16.9235 33.5556 16.7432 33.5875 16.5668C32.9064 15.487 32.2067 14.4569 31.4884 13.4767Z" stroke="white" stroke-linecap="round" stroke-linejoin="round"/>
<path d="M38.1884 4.68731L35.5627 3.13281C38.2766 4.73953 39.0256 9.15237 38.0003 14.7751C37.7969 15.8905 37.5202 17.0553 37.1786 18.2536C36.904 19.2166 36.5856 20.2 36.2234 21.2037C36.189 21.299 36.1543 21.3944 36.1192 21.4898C35.6844 22.6696 35.1914 23.8671 34.6402 25.0823C34.0017 26.4823 33.2846 27.897 32.4922 29.3105C32.5101 29.3631 32.527 29.415 32.5445 29.4674C33.6829 29.2444 34.8069 28.9495 35.9098 28.5844C36.0804 28.5271 36.2512 28.47 36.4161 28.4102C36.9876 27.2655 37.5077 26.1291 37.9764 25.0011C38.2993 24.2256 38.5976 23.4577 38.8713 22.6975C39.242 21.6673 39.5664 20.657 39.8445 19.6667C40.2165 18.3589 40.5135 17.0299 40.734 15.6864C41.5879 10.3726 40.7977 6.23207 38.1884 4.68731Z" stroke="white" stroke-linecap="round" stroke-linejoin="round"/>
<path d="M35.5622 3.13151C32.9529 1.58675 29.0609 2.95533 25 6.37047C26.0244 7.23799 26.9983 8.16628 27.9168 9.15056C29.532 8.3506 30.9743 8.19357 32.0588 8.83565C32.6028 9.17231 33.0346 9.67004 33.2972 10.2633C33.7613 11.3903 33.9612 12.6132 33.881 13.8338C33.8532 14.7513 33.7549 15.6652 33.5871 16.5668C33.5551 16.7432 33.5179 16.9235 33.481 17.1035C33.2379 18.2655 32.9249 19.4111 32.5441 20.5336C32.5265 20.5859 32.5097 20.6378 32.4918 20.6903C31.988 22.1619 31.398 23.6011 30.7251 24.9999C30.3133 25.8585 29.864 26.7243 29.3762 27.5907C28.8884 28.457 28.3818 29.2889 27.8626 30.084C29.3803 29.9821 30.8907 29.7864 32.3855 29.4981C32.4034 29.4665 32.4218 29.4359 32.4396 29.4043C32.4574 29.3726 32.474 29.3409 32.4918 29.3093C33.2841 27.8958 34.0013 26.481 34.6397 25.081C35.1927 23.8686 35.6857 22.6711 36.1188 21.4886C36.154 21.393 36.1887 21.2977 36.223 21.2025C36.5851 20.2005 36.9035 19.2171 37.1781 18.2524C37.5197 17.0541 37.7965 15.8893 37.9999 14.7738C39.0251 9.15107 38.2761 4.73823 35.5622 3.13151Z" stroke="white" stroke-linecap="round" stroke-linejoin="round"/>
<path d="M40.7331 34.3147C39.4883 34.7906 38.2173 35.1913 36.9268 35.5149C36.7949 37.3492 36.2063 38.7085 35.1218 39.3506C34.5655 39.6653 33.9292 39.7999 33.2968 39.7366C32.113 39.5851 30.9802 39.1512 29.9895 38.4697C29.2285 37.9862 28.5058 37.4421 27.8282 36.8422C27.6952 36.7256 27.5616 36.6025 27.428 36.4797C26.5682 35.6827 25.7572 34.8321 24.9996 33.9326C24.9642 33.8909 24.9287 33.8499 24.8933 33.8078C23.9024 32.6245 22.982 31.381 22.137 30.0841C21.6178 29.2891 21.1132 28.458 20.6234 27.5908C20.1356 26.7245 19.6863 25.8587 19.2745 25C18.6016 26.3988 18.0117 27.8379 17.5078 29.3095C17.5255 29.3412 17.5422 29.3728 17.56 29.4044C17.5778 29.436 17.5963 29.4667 17.6142 29.4983C18.4118 30.9087 19.248 32.2529 20.1112 33.5199C20.8588 34.6171 21.6267 35.6536 22.4057 36.6296C22.4688 36.7086 22.532 36.7872 22.5952 36.8652C23.2604 37.6877 23.9318 38.4621 24.6092 39.1884C25.4504 40.0909 26.2958 40.9191 27.1361 41.6574C31.3722 45.3793 35.4736 46.9206 38.1876 45.3139C40.7968 43.7691 41.587 39.6285 40.7331 34.3147Z" stroke="white" stroke-linecap="round" stroke-linejoin="round"/>
<path d="M25.1064 16.1925C25.0708 16.1925 25.0358 16.1914 25.0002 16.1914C24.9646 16.1914 24.9295 16.1926 24.8939 16.1926C23.3039 16.1957 21.7505 16.2662 20.2489 16.3993C18.9484 16.5145 17.6891 16.6782 16.4753 16.882C16.377 16.8985 16.2791 16.9154 16.1816 16.9326C15.1543 17.112 14.1646 17.3209 13.2125 17.5594C12.0297 17.8552 10.9076 18.1918 9.86374 18.569C4.60245 20.4698 1.25 23.3414 1.25 26.5548C1.24997 29.6443 4.35186 32.4163 9.26661 34.315C9.48712 32.9716 9.78413 31.6425 10.1561 30.3347C8.67295 29.3004 7.8192 28.098 7.8192 26.8139C7.83153 26.1625 8.03601 25.5302 8.4057 25.0003C9.12554 24.0247 10.0584 23.2357 11.1293 22.6967C11.9181 22.2626 12.739 21.893 13.5845 21.5912C13.7494 21.5314 13.9202 21.4743 14.0908 21.417C15.1938 21.0519 16.3177 20.7571 17.4561 20.5341C17.5091 20.5235 17.5614 20.5125 17.6147 20.5021C19.1095 20.2137 20.6199 20.0181 22.1376 19.9162C23.0687 19.8526 24.0246 19.8186 25.0002 19.8186C25.9758 19.8186 26.9316 19.8526 27.8627 19.9162C27.0178 18.6193 26.0974 17.3758 25.1064 16.1925Z" stroke="white" stroke-linecap="round" stroke-linejoin="round"/>
</svg>
