<svg width="52" height="50" viewBox="0 0 52 50" fill="none" xmlns="http://www.w3.org/2000/svg">
<path d="M11.6992 34.627L18.8507 47.4992H33.1525L26.0016 34.627H11.6992Z" stroke="white" stroke-width="1.5" stroke-linecap="round" stroke-linejoin="round"/>
<path d="M22.4533 2.5H8.15091L1 15.3721H15.3024L22.4533 2.5Z" stroke="white" stroke-width="1.5" stroke-linecap="round" stroke-linejoin="round"/>
<path d="M22.3927 15.3721L25.9979 8.883L22.4517 2.5L15.3008 15.3721L22.4517 28.2448L25.9979 21.8613L25.9389 21.7551L22.3927 15.3721Z" stroke="white" stroke-width="1.5" stroke-linecap="round" stroke-linejoin="round"/>
<path d="M15.3024 15.373H1L8.15091 28.2457H15.2433H22.4533L15.3024 15.373Z" stroke="white" stroke-width="1.5" stroke-linecap="round" stroke-linejoin="round"/>
<path d="M29.5479 2.5L26.0017 8.883L22.3965 15.3721H36.6988L43.8503 2.5H29.5479Z" stroke="white" stroke-width="1.5" stroke-linecap="round" stroke-linejoin="round"/>
<path d="M51.0016 15.3721L43.8507 2.5L36.6992 15.3721L43.8507 28.2448L51.0016 15.3721Z" stroke="white" stroke-width="1.5" stroke-linecap="round" stroke-linejoin="round"/>
<path d="M26.0606 21.7559L26.0016 21.8621L22.4554 28.2456H15.2454L11.6992 34.6286H26.0016L33.1525 21.7559H26.0606Z" stroke="white" stroke-width="1.5" stroke-linecap="round" stroke-linejoin="round"/>
<path d="M36.7562 28.2451L33.1509 21.7559L26 34.6281L33.1509 47.5002L40.3024 34.6281L36.7562 28.2451Z" stroke="white" stroke-width="1.5" stroke-linecap="round" stroke-linejoin="round"/>
<path d="M36.6988 15.373H22.3965L25.9427 21.756H26.0608H33.1526L36.7579 28.2457H43.8503L36.6988 15.373Z" stroke="white" stroke-width="1.5" stroke-linecap="round" stroke-linejoin="round"/>
<path d="M26.0004 21.8632L26.0595 21.7559H25.9414L26.0004 21.8632Z" stroke="white" stroke-width="1.5" stroke-linecap="round" stroke-linejoin="round"/>
</svg>
