<svg width="50" height="50" viewBox="0 0 50 50" fill="none" xmlns="http://www.w3.org/2000/svg">
<g clip-path="url(#clip0_2049_507)">
<mask id="mask0_2049_507" style="mask-type:luminance" maskUnits="userSpaceOnUse" x="0" y="0" width="50" height="50">
<path d="M50 0H0V50H50V0Z" fill="white"/>
</mask>
<g mask="url(#mask0_2049_507)">
<path d="M31.2837 46.4298C33.483 47.8487 36.1039 48.467 38.7056 48.1808C41.3072 47.8946 43.731 46.7214 45.5694 44.8583L47.1765 43.2869C47.8811 42.5662 48.2756 41.5984 48.2756 40.5905C48.2756 39.5826 47.8811 38.6147 47.1765 37.894L40.3551 31.144C39.6404 30.4417 38.6785 30.0482 37.6765 30.0482C36.6745 30.0482 35.7126 30.4417 34.998 31.144C34.2773 31.8486 33.3094 32.2431 32.3015 32.2431C31.2936 32.2431 30.3258 31.8486 29.6051 31.144L18.8908 20.4298C18.5334 20.0775 18.2496 19.6578 18.0558 19.1949C17.8621 18.7319 17.7623 18.2351 17.7623 17.7333C17.7623 17.2315 17.8621 16.7347 18.0558 16.2718C18.2496 15.8089 18.5334 15.3891 18.8908 15.0369C19.5931 14.3222 19.9867 13.3603 19.9867 12.3583C19.9867 11.3563 19.5931 10.3944 18.8908 9.67973L12.1051 2.89401C11.3844 2.18942 10.4166 1.79492 9.40867 1.79492C8.40078 1.79492 7.43293 2.18942 6.71224 2.89401L5.14081 4.50115C3.27776 6.33952 2.10451 8.7633 1.81833 11.365C1.53214 13.9667 2.15049 16.5875 3.56938 18.7869C10.9624 29.6824 20.3692 39.0649 31.2837 46.4298Z" stroke="white" stroke-width="2" stroke-linecap="round" stroke-linejoin="round"/>
</g>
</g>
<defs>
<clipPath id="clip0_2049_507">
<rect width="50" height="50" fill="white"/>
</clipPath>
</defs>
</svg>
