<svg width="52" height="52" viewBox="0 0 52 52" fill="none" xmlns="http://www.w3.org/2000/svg">
<g clip-path="url(#clip0_2049_239)">
<mask id="mask0_2049_239" style="mask-type:luminance" maskUnits="userSpaceOnUse" x="0" y="0" width="52" height="52">
<path d="M52 0H0V52H52V0Z" fill="white"/>
</mask>
<g mask="url(#mask0_2049_239)">
<path d="M38.9272 25.3672L26.0014 3L20.0537 13.2919C21.8723 12.671 23.777 12.3397 25.6982 12.3103L26.0014 11.7858L39.3256 34.8425C40.3056 31.7349 40.1646 28.3815 38.9272 25.3672Z" stroke="white" stroke-width="1.5" stroke-linecap="round" stroke-linejoin="round"/>
<path d="M10.2759 40.137H9.61688L22.9695 17.0312C19.7754 17.7445 16.9321 19.5558 14.934 22.15L2.00098 44.5299H13.9927C12.5317 43.2694 11.2775 41.787 10.2759 40.137Z" stroke="white" stroke-width="1.5" stroke-linecap="round" stroke-linejoin="round"/>
<path d="M27.4756 44.53C24.2722 44.8657 21.0511 44.0855 18.3554 42.321C15.6597 40.5566 13.6542 37.9158 12.677 34.8438L9.94824 39.5658C10.0553 39.7579 10.1634 39.9493 10.2771 40.1371C11.6623 42.4253 13.5295 44.3836 15.7483 45.8755C17.9672 47.3673 20.4844 48.357 23.1245 48.7752C25.7647 49.1934 28.4641 49.0302 31.0348 48.2971C33.6054 47.5639 35.9854 46.2783 38.0088 44.53H27.4756Z" stroke="white" stroke-width="1.5" stroke-linecap="round" stroke-linejoin="round"/>
<path d="M26.3029 12.3103C26.2016 12.3087 26.1014 12.3027 25.9997 12.3027C25.8981 12.3027 25.7979 12.3087 25.6966 12.3103C23.0131 12.3485 20.3707 12.9763 17.9562 14.1492C15.5418 15.3222 13.4142 17.0118 11.724 19.0985C10.0338 21.1852 8.82217 23.6181 8.17481 26.2252C7.52745 28.8323 7.46016 31.5499 7.97769 34.1858L13.0737 25.3676C14.324 22.3174 16.6111 19.8078 19.531 18.2822C22.4509 16.7566 25.8156 16.3131 29.0305 17.0303L26.3029 12.3103Z" stroke="white" stroke-width="1.5" stroke-linecap="round" stroke-linejoin="round"/>
<path d="M31.9492 13.293L37.0678 22.1504C39.0852 24.7592 40.1093 28.0014 39.9569 31.2968C39.8045 34.5923 38.4856 37.7259 36.2361 40.1371H41.7258C41.8395 39.9492 41.9475 39.7577 42.0546 39.5656C42.9905 37.888 43.6551 36.0726 44.0236 34.1868C44.8789 29.8312 44.1264 25.3129 41.9059 21.4705C39.6854 17.6281 36.1477 14.7225 31.9492 13.293Z" stroke="white" stroke-width="1.5" stroke-linecap="round" stroke-linejoin="round"/>
<path d="M44.0233 34.1855C43.6548 36.0712 42.9902 37.8867 42.0543 39.5644L42.3846 40.1357H15.7666C18.0601 42.612 21.1723 44.1726 24.527 44.5286H50.0005L44.0233 34.1855Z" stroke="white" stroke-width="1.5" stroke-linecap="round" stroke-linejoin="round"/>
</g>
</g>
<defs>
<clipPath id="clip0_2049_239">
<rect width="52" height="52" fill="white"/>
</clipPath>
</defs>
</svg>
