<svg width="50" height="50" viewBox="0 0 50 50" fill="none" xmlns="http://www.w3.org/2000/svg">
<path d="M32.3986 10.4738L28.6995 4H21.3008L24.9999 10.4738H32.3986Z" stroke="white" stroke-width="1.5" stroke-linecap="round" stroke-linejoin="round"/>
<path d="M26.8359 26.632H30.5044L32.3693 23.3683H36.0995L37.9338 20.1582H30.535L26.8359 26.632Z" stroke="white" stroke-width="1.5" stroke-linecap="round" stroke-linejoin="round"/>
<path d="M34.2347 13.6836H26.8359L30.535 20.1575H37.9338L34.2347 13.6836Z" stroke="white" stroke-width="1.5" stroke-linecap="round" stroke-linejoin="round"/>
<path d="M34.2344 33.0519L36.0686 36.2625L37.9028 33.0519H41.6331L43.4673 29.8418H36.0686L34.2344 33.0519Z" stroke="white" stroke-width="1.5" stroke-linecap="round" stroke-linejoin="round"/>
<path d="M36.0667 29.841L32.3671 23.3672L30.5022 26.631L28.668 29.841L30.5022 33.0511H34.2325L36.0667 29.841Z" stroke="white" stroke-width="1.5" stroke-linecap="round" stroke-linejoin="round"/>
<path d="M39.7659 23.3672H32.3672L36.0668 29.841H43.4655L39.7659 23.3672Z" stroke="white" stroke-width="1.5" stroke-linecap="round" stroke-linejoin="round"/>
<path d="M41.602 39.5254L37.9023 45.9992H45.3011L49.0007 39.5254H41.602Z" stroke="white" stroke-width="1.5" stroke-linecap="round" stroke-linejoin="round"/>
<path d="M23.1337 20.1582H19.4647L15.7656 26.632H23.1644L24.9986 23.4214L23.1337 20.1582Z" stroke="white" stroke-width="1.5" stroke-linecap="round" stroke-linejoin="round"/>
<path d="M15.766 13.6836L12.0664 20.1575L15.766 26.6313L19.4651 20.1575L15.766 13.6836Z" stroke="white" stroke-width="1.5" stroke-linecap="round" stroke-linejoin="round"/>
<path d="M23.1337 20.1575L24.9679 16.9474H21.2995L19.4341 13.6836H15.7656L19.4647 20.1575H23.1337Z" stroke="white" stroke-width="1.5" stroke-linecap="round" stroke-linejoin="round"/>
<path d="M24.9999 10.4746L21.3008 16.9484H24.9692L24.9999 16.8948L26.8346 13.6847H30.5644L32.3986 10.4746H24.9999Z" stroke="white" stroke-width="1.5" stroke-linecap="round" stroke-linejoin="round"/>
<path d="M21.3012 4L17.6016 10.4738L21.3012 16.9476L25.0003 10.4738L21.3012 4Z" stroke="white" stroke-width="1.5" stroke-linecap="round" stroke-linejoin="round"/>
<path d="M26.8324 13.6836L23.1328 20.1575L26.8324 26.6313L30.5315 20.1575L26.8324 13.6836Z" stroke="white" stroke-width="1.5" stroke-linecap="round" stroke-linejoin="round"/>
<path d="M30.535 39.5254L26.8359 45.9992H34.2347L37.9338 39.5254H30.535Z" stroke="white" stroke-width="1.5" stroke-linecap="round" stroke-linejoin="round"/>
<path d="M37.9006 33.0527L36.0664 36.2633L36.097 36.3164L37.9313 39.5265L36.0664 42.7903L37.9006 46.0003L41.6003 39.5265L37.9006 33.0527Z" stroke="white" stroke-width="1.5" stroke-linecap="round" stroke-linejoin="round"/>
<path d="M45.3011 33.0527H37.9023L41.602 39.5265H49.0007L45.3011 33.0527Z" stroke="white" stroke-width="1.5" stroke-linecap="round" stroke-linejoin="round"/>
<path d="M25 36.2633L26.8649 39.5265L25 42.7903L26.8347 46.0003L30.5339 39.5265L26.8347 33.0527L25 36.2633Z" stroke="white" stroke-width="1.5" stroke-linecap="round" stroke-linejoin="round"/>
<path d="M34.2347 33.0527H26.8359L30.535 39.5265H37.9338L34.2347 33.0527Z" stroke="white" stroke-width="1.5" stroke-linecap="round" stroke-linejoin="round"/>
<path d="M36.0391 36.3142H36.1003L36.0697 36.2617L36.0391 36.3142Z" stroke="white" stroke-width="1.5" stroke-linecap="round" stroke-linejoin="round"/>
<path d="M8.39833 39.5254L4.69922 45.9992H12.0979L15.7971 39.5254H8.39833Z" stroke="white" stroke-width="1.5" stroke-linecap="round" stroke-linejoin="round"/>
<path d="M19.4647 39.5254L15.7656 45.9992H23.1638L26.8635 39.5254H19.4647Z" stroke="white" stroke-width="1.5" stroke-linecap="round" stroke-linejoin="round"/>
<path d="M21.3322 29.841L19.498 26.631H15.7677L13.9028 23.3672H10.2344L13.9335 29.841H21.3322Z" stroke="white" stroke-width="1.5" stroke-linecap="round" stroke-linejoin="round"/>
<path d="M1 39.5265L4.69962 46.0003L8.39873 39.5265L4.69962 33.0527L1 39.5265Z" stroke="white" stroke-width="1.5" stroke-linecap="round" stroke-linejoin="round"/>
<path d="M10.2331 36.3164L8.36769 33.0527H4.69922L8.39833 39.5265H15.7971L13.9628 36.3164H10.2331Z" stroke="white" stroke-width="1.5" stroke-linecap="round" stroke-linejoin="round"/>
<path d="M10.2309 23.3672L6.53125 29.841L10.2309 36.3149L13.93 29.841L10.2309 23.3672Z" stroke="white" stroke-width="1.5" stroke-linecap="round" stroke-linejoin="round"/>
<path d="M17.6332 36.3164H13.9642L15.7985 39.5265L13.9336 42.7902L15.7678 46.0003L19.4674 39.5265L17.6332 36.3164Z" stroke="white" stroke-width="1.5" stroke-linecap="round" stroke-linejoin="round"/>
<path d="M23.1662 33.0527H19.4977L17.6328 36.3164L19.467 39.5265H26.8658L23.1662 33.0527Z" stroke="white" stroke-width="1.5" stroke-linecap="round" stroke-linejoin="round"/>
<path d="M17.6331 36.3156H10.2344L13.9335 29.8418H21.3322L17.6331 36.3156Z" stroke="white" stroke-width="1.5" stroke-linecap="round" stroke-linejoin="round"/>
</svg>
