<svg width="120" height="120" viewBox="0 0 120 120" fill="none" xmlns="http://www.w3.org/2000/svg">
<path d="M59.9706 5C72.2929 5.00003 84.3647 13.0261 90.4872 23.3184L90.8798 23.9834C94.7627 30.6551 97.3201 37.9897 98.415 45.5977L98.4765 46.0527C105.064 50.9599 110.596 57.1009 114.748 64.123C120.869 74.4148 122.005 88.5972 115.829 98.9805C109.657 109.358 96.4561 115.482 84.2324 115.482L84.2333 115.483C75.9119 115.508 67.6668 113.928 59.9677 110.834C52.2698 113.927 44.0271 115.508 35.707 115.483H35.704V115.482C23.4807 115.482 10.2803 109.357 4.10834 98.9795C-2.06718 88.5962 -0.932855 74.4141 5.18939 64.1211C9.34264 57.0982 14.8749 50.9554 21.4638 46.0479C22.5559 38.0264 25.272 30.2988 29.4531 23.3213C35.5752 13.0295 47.6477 5.00015 59.9706 5ZM81.6025 38.6924C67.5203 33.6642 52.0695 33.7025 38.0087 38.8096L38.0097 38.8105C33.4669 40.4638 29.14 42.6405 25.123 45.2969L25.124 45.2979C24.2699 45.8637 23.4363 46.457 22.6103 47.0654C16.0688 51.8858 10.5832 57.9469 6.47943 64.8867L6.47846 64.8877C0.581691 74.8016 -0.445551 88.3888 5.3974 98.2129C11.244 108.044 23.8935 113.983 35.707 113.983H35.7089C43.3241 114.006 50.8718 112.651 57.9775 109.995C57.6574 109.854 57.3376 109.711 57.0195 109.564L57.0165 109.562L56.955 109.536L56.8954 109.511C56.8688 109.5 56.8269 109.482 56.7831 109.462H56.7822C52.585 107.499 48.6259 105.081 44.9775 102.256L44.5146 101.892C41.9836 102.322 39.4247 102.572 36.8574 102.629L35.707 102.642C31.9717 102.642 27.8921 101.707 24.2792 99.9932C20.6703 98.2814 17.4699 95.7654 15.5634 92.5596C13.6558 89.3524 13.0093 85.3972 13.287 81.498C13.5651 77.5963 14.772 73.6905 16.6445 70.543H16.6454C18.1212 68.0648 19.8147 65.7185 21.7031 63.5273L21.7021 63.5195L21.9365 63.25C24.7987 59.9654 28.0995 57.0741 31.748 54.6543L32.4394 54.207C32.8794 53.9295 33.324 53.6639 33.7685 53.4033C33.8853 53.3348 34.0022 53.2669 34.1191 53.1992C34.2597 53.1179 34.3994 53.0353 34.54 52.9551L35.665 52.3125L35.664 52.3398C43.1192 48.367 51.4742 46.2813 59.9706 46.2812C68.4572 46.2813 76.8023 48.3633 84.2509 52.3271C84.2334 51.7222 84.2069 51.1189 84.1601 50.5166C83.8445 46.4814 82.9828 42.5057 81.6025 38.6924ZM98.7812 48.6572L98.8476 49.4307V49.4316C99.2089 54.1367 99.0004 58.8667 98.2304 63.5234C100.121 65.7162 101.816 68.0645 103.293 70.5449C105.165 73.6919 106.372 77.5974 106.65 81.499C106.928 85.3979 106.281 89.3524 104.374 92.5596C102.467 95.7654 99.2671 98.2814 95.6581 99.9932C92.271 101.6 88.4738 102.523 84.9345 102.632L84.2304 102.643C81.1631 102.641 78.1016 102.372 75.0829 101.838V101.837C70.7337 101.076 66.5073 99.7494 62.5165 97.8896H62.5156C61.515 97.4223 60.55 96.9123 59.6054 96.3926H59.6044C59.3777 96.2676 59.1521 96.141 58.9277 96.0127L58.4169 95.7314L58.4306 95.7227C51.2177 91.488 45.2036 85.53 40.9589 78.3926C36.7086 71.2456 34.3796 63.1636 34.1777 54.9043C33.6369 55.2265 33.1033 55.5567 32.58 55.9033C29.1411 58.1842 26.023 60.8978 23.3037 63.9717C25.8572 78.2209 33.5254 91.1072 44.9247 100.301H44.9267L45.1913 100.513C48.9456 103.51 53.0515 106.059 57.4218 108.103C57.4329 108.108 57.4471 108.114 57.4765 108.126C57.5016 108.136 57.5441 108.153 57.5869 108.173H57.5859L57.6376 108.195L57.6445 108.198L57.6503 108.201C58.5116 108.597 59.3797 108.973 60.2538 109.33L60.5956 109.469C68.0955 112.473 76.1241 114.008 84.2285 113.983H84.2304C96.0441 113.983 108.693 108.044 114.54 98.2139C120.383 88.3898 119.354 74.8024 113.459 64.8896L113.458 64.8877C109.65 58.448 104.653 52.766 98.7255 48.1289C98.7439 48.3048 98.7646 48.4807 98.7812 48.6572ZM22.0556 65.4395C20.5368 67.2939 19.1573 69.2547 17.9335 71.3096C16.1866 74.246 15.0455 77.924 14.7831 81.6045C14.5207 85.2878 15.1429 88.9159 16.8535 91.792C18.5651 94.6703 21.4956 97.0125 24.9218 98.6377C28.3444 100.261 32.2056 101.142 35.707 101.142C38.1326 101.141 40.5536 100.963 42.9521 100.619C32.1585 91.5303 24.7949 79.1378 22.0556 65.4395ZM97.8798 65.4395C95.1393 79.1382 87.7749 91.531 76.9794 100.619C79.3798 100.964 81.8029 101.141 84.2304 101.142C87.7318 101.142 91.593 100.262 95.0156 98.6387C98.4419 97.0135 101.373 94.6713 103.085 91.793C104.795 88.917 105.417 85.2887 105.154 81.6055C104.892 77.925 103.749 74.2475 102.003 71.3115C100.779 69.2558 99.399 67.2946 97.8798 65.4395ZM59.9706 6.5C48.259 6.50015 36.6397 14.1757 30.7431 24.0879L30.7412 24.0908C26.9133 30.4782 24.3452 37.5084 23.164 44.8145C23.5367 44.5535 23.914 44.296 24.2958 44.043L25.0712 43.5381C28.8696 41.1061 32.9273 39.0877 37.1718 37.5166C38.1854 34.8242 39.4351 32.2226 40.9091 29.7432C42.7808 26.5965 45.6591 23.6316 48.9951 21.4502C52.329 19.2702 56.1694 17.8409 59.9706 17.8408C63.772 17.8408 67.6132 19.2696 70.9472 21.4492C74.283 23.6302 77.1615 26.5949 79.0331 29.7422L79.5966 30.7158C80.8285 32.9005 81.8867 35.1755 82.7685 37.5186L82.7714 37.5195L82.8408 37.7061C82.8575 37.7511 82.875 37.7958 82.8915 37.8408C83.9078 40.5827 84.6613 43.4086 85.1464 46.2812C85.1626 46.3769 85.1777 46.4726 85.1933 46.5684C85.3993 47.8363 85.5549 49.1128 85.6552 50.3955V50.3965C85.6741 50.6401 85.6885 50.8834 85.7021 51.126L85.7079 51.2061C85.7116 51.2743 85.7144 51.3429 85.7177 51.4111C85.7217 51.4929 85.725 51.5746 85.7285 51.6562C85.7425 51.9858 85.7515 52.3143 85.7587 52.6416C85.7599 52.695 85.7635 52.7484 85.7646 52.8018L85.7763 53.5947V53.5996C85.7764 53.6211 85.7753 53.6426 85.7753 53.6641L85.787 54.8975L85.7607 54.8818C85.5615 63.1472 83.2318 71.2357 78.9785 78.3877C74.7361 85.5211 68.7261 91.4758 61.5185 95.71C62.0587 95.993 62.6026 96.2673 63.1552 96.5254H63.1542C66.924 98.2822 70.9113 99.5473 75.0146 100.294C86.4121 91.101 94.0779 78.2161 96.6318 63.9688L96.6923 63.6162C97.4884 58.9712 97.7083 54.2486 97.3476 49.5518L97.2831 48.8027C97.2126 48.0543 97.1256 47.3069 97.0283 46.5586L96.9365 45.8584L96.9296 45.8115C95.8267 38.1478 93.2018 30.767 89.2001 24.0889L89.1992 24.0869C83.3026 14.1732 71.6827 6.50003 59.9706 6.5ZM59.9706 47.7812C51.45 47.7813 43.0776 49.9421 35.664 54.0479C35.7205 62.333 37.9881 70.4629 42.248 77.626C46.5128 84.7971 52.6233 90.7424 59.9648 94.873C67.3099 90.7421 73.423 84.7949 77.6894 77.6211C81.9486 70.4592 84.2161 62.3306 84.2734 54.0469C76.8606 49.9423 68.49 47.7813 59.9706 47.7812ZM59.9706 19.3408C56.5354 19.3409 52.9761 20.6383 49.8154 22.7051C46.6568 24.7706 43.9447 27.5735 42.1982 30.5098C40.9865 32.5481 39.933 34.6719 39.041 36.8613C52.6088 32.3128 67.3347 32.314 80.9023 36.8633C80.1468 35.0084 79.2758 33.2004 78.29 31.4521L77.7431 30.5088C75.9965 27.5718 73.2845 24.7691 70.1259 22.7041C66.9652 20.6378 63.406 19.3408 59.9706 19.3408Z" fill="white" fill-opacity="0.1"/>
</svg>
