<svg width="50" height="50" viewBox="0 0 50 50" fill="none" xmlns="http://www.w3.org/2000/svg">
<path d="M48.7506 18.8647L46.5921 14.7734L33.6415 39.3187L29.3245 31.1373L27.166 35.228L33.6415 47.5006L48.7506 18.8647Z" stroke="white" stroke-width="1.1" stroke-linecap="round" stroke-linejoin="round"/>
<path d="M20.6914 14.7734L22.8499 18.8647H40.1175L31.4839 35.228L33.6424 39.3187L46.593 14.7734H20.6914Z" stroke="white" stroke-width="1.1" stroke-linecap="round" stroke-linejoin="round"/>
<path d="M27.1683 35.2266L25.0098 39.3173L27.1683 43.4086L29.3268 47.4992H33.6438L27.1683 35.2266Z" stroke="white" stroke-width="1.1" stroke-linecap="round" stroke-linejoin="round"/>
<path d="M40.1172 18.8633H22.8496L25.0081 22.954H37.9587L40.1172 18.8633Z" stroke="white" stroke-width="1.1" stroke-linecap="round" stroke-linejoin="round"/>
<path d="M29.3268 22.9551L20.6927 39.3184L12.0592 22.9551H7.74219L20.6927 47.5003L33.6438 22.9551H29.3268Z" stroke="white" stroke-width="1.1" stroke-linecap="round" stroke-linejoin="round"/>
<path d="M12.0731 14.812L3.4391 14.7344L1.25 18.8056L14.2005 18.9222L12.0731 14.812Z" stroke="white" stroke-width="1.1" stroke-linecap="round" stroke-linejoin="round"/>
<path d="M7.7431 22.954H16.3766L14.2186 18.8633H1.26758L16.3766 47.4993H20.6936L7.7431 22.954Z" stroke="white" stroke-width="1.1" stroke-linecap="round" stroke-linejoin="round"/>
<path d="M40.1176 2.5L33.6426 14.7726H37.9591L42.2761 6.59125L40.1176 2.5Z" stroke="white" stroke-width="1.1" stroke-linecap="round" stroke-linejoin="round"/>
<path d="M9.90069 2.5L7.74219 6.59125H33.6438L29.3267 14.7726H33.6438L40.1188 2.5H9.90069Z" stroke="white" stroke-width="1.1" stroke-linecap="round" stroke-linejoin="round"/>
<path d="M18.5333 10.6816H14.2168L22.8503 27.0449L25.0088 22.9542L18.5333 10.6816Z" stroke="white" stroke-width="1.1" stroke-linecap="round" stroke-linejoin="round"/>
<path d="M25.0107 22.9551L18.5352 35.2277L20.6937 39.3184L29.3277 22.9551H25.0107Z" stroke="white" stroke-width="1.1" stroke-linecap="round" stroke-linejoin="round"/>
<path d="M7.74219 6.5918L20.6927 31.137L22.8512 27.0458L14.2177 10.6825H31.4853L33.6438 6.5918H7.74219Z" stroke="white" stroke-width="1.1" stroke-linecap="round" stroke-linejoin="round"/>
</svg>
