<svg width="52" height="52" viewBox="0 0 52 52" fill="none" xmlns="http://www.w3.org/2000/svg">
<g clip-path="url(#clip0_2049_491)">
<mask id="mask0_2049_491" style="mask-type:luminance" maskUnits="userSpaceOnUse" x="0" y="0" width="52" height="52">
<path d="M52 0H0V52H52V0Z" fill="white"/>
</mask>
<g mask="url(#mask0_2049_491)">
<path d="M14.2672 20.1328L7.86719 25.9995H20.1339V20.1328H14.2672Z" stroke="white" stroke-width="1.5" stroke-linecap="round" stroke-linejoin="round"/>
<path d="M7.86719 13.7344V26.0011L14.2672 20.1344V13.7344H7.86719Z" stroke="white" stroke-width="1.5" stroke-linecap="round" stroke-linejoin="round"/>
<path d="M44.1328 25.9995V49.9995L49.9995 44.1328V20.1328L44.1328 25.9995Z" stroke="white" stroke-width="1.5" stroke-linecap="round" stroke-linejoin="round"/>
<path d="M31.8667 38.2656L26 44.1323H38.2667V38.2656H31.8667Z" stroke="white" stroke-width="1.5" stroke-linecap="round" stroke-linejoin="round"/>
<path d="M7.86667 2L2 7.86667H26L31.8667 2H7.86667Z" stroke="white" stroke-width="1.5" stroke-linecap="round" stroke-linejoin="round"/>
<path d="M31.8672 20.1328V25.9995H44.1339L50.0005 20.1328H31.8672Z" stroke="white" stroke-width="1.5" stroke-linecap="round" stroke-linejoin="round"/>
<path d="M26 7.86667V44.1333L31.8667 38.2667V2L26 7.86667Z" stroke="white" stroke-width="1.5" stroke-linecap="round" stroke-linejoin="round"/>
<path d="M31.8667 26.0005V31.8672H38.2667V44.1339H26V7.86719H2V31.8672H20.1333V26.0005H7.86667V13.7339H20.1333V50.0005H44.1333V26.0005H31.8667Z" stroke="white" stroke-width="1.5" stroke-linecap="round" stroke-linejoin="round"/>
</g>
</g>
<defs>
<clipPath id="clip0_2049_491">
<rect width="52" height="52" fill="white"/>
</clipPath>
</defs>
</svg>
