<svg width="50" height="50" viewBox="0 0 50 50" fill="none" xmlns="http://www.w3.org/2000/svg">
<path d="M23.9804 26.9616L20.2422 24.2651L27.3013 2.5L32.226 16.7208H27.3018L23.9804 26.9616Z" stroke="white" stroke-width="1.5" stroke-linecap="round" stroke-linejoin="round"/>
<path d="M24.3672 25.7684L25.7856 21.3933L48.7472 21.3555L36.6921 30.4154L35.1706 25.7503L24.3672 25.7684Z" stroke="white" stroke-width="1.5" stroke-linecap="round" stroke-linejoin="round"/>
<path d="M25.6281 25.7654L30.2436 25.7578L37.3754 47.4998L25 38.8783L28.9838 35.9956L25.6281 25.7654Z" stroke="white" stroke-width="1.5" stroke-linecap="round" stroke-linejoin="round"/>
<path d="M26.0187 26.959L27.4523 31.3291L8.89844 44.8039L13.3052 30.416L17.289 33.2992L26.0187 26.959Z" stroke="white" stroke-width="1.5" stroke-linecap="round" stroke-linejoin="round"/>
<path d="M25.0013 27.6969L21.2721 30.4055L2.67383 16.9921L17.7724 16.7207L16.2509 21.3859L25.0013 27.6969Z" stroke="white" stroke-width="1.5" stroke-linecap="round" stroke-linejoin="round"/>
<path d="M22.6962 2.5L17.7715 16.7208L16.25 21.3859L20.2424 24.2651L27.3015 2.5H22.6962Z" stroke="white" stroke-width="1.5" stroke-linecap="round" stroke-linejoin="round"/>
<path d="M32.2287 16.7207H27.3045L25.7891 21.3929L48.7507 21.3551L47.3272 16.9916L32.2287 16.7207Z" stroke="white" stroke-width="1.5" stroke-linecap="round" stroke-linejoin="round"/>
<path d="M36.6949 30.4146L35.1734 25.75L30.2441 25.7575L37.376 47.4995L41.1017 44.8025L36.6949 30.4146Z" stroke="white" stroke-width="1.5" stroke-linecap="round" stroke-linejoin="round"/>
<path d="M28.9833 35.9957L27.4523 31.3281L8.89844 44.803L12.6246 47.4999L24.9995 38.8785L28.9833 35.9957Z" stroke="white" stroke-width="1.5" stroke-linecap="round" stroke-linejoin="round"/>
<path d="M2.67345 16.9922L1.25 21.3553L13.3051 30.4152L17.2884 33.2985L21.2717 30.4057L2.67345 16.9922Z" stroke="white" stroke-width="1.5" stroke-linecap="round" stroke-linejoin="round"/>
</svg>
