<svg width="50" height="50" viewBox="0 0 50 50" fill="none" xmlns="http://www.w3.org/2000/svg">
<g clip-path="url(#clip0_2049_305)">
<mask id="mask0_2049_305" style="mask-type:luminance" maskUnits="userSpaceOnUse" x="0" y="0" width="50" height="50">
<path d="M50 0H0V50H50V0Z" fill="white"/>
</mask>
<g mask="url(#mask0_2049_305)">
<path d="M13.0545 33.1025C12.0067 31.3893 11.1238 29.5865 10.4172 27.7168C8.89402 30.1327 8.40288 32.7279 9.67268 34.7042C10.0213 35.2058 10.4817 35.6254 11.0201 35.9318C11.5585 36.2383 12.161 36.4239 12.7834 36.475C12.6574 35.3443 12.7493 34.2007 13.0545 33.1025Z" stroke="white" stroke-width="1.5" stroke-linecap="round" stroke-linejoin="round"/>
<path d="M2.01899 39.1257C1.96872 39.023 1.91788 38.915 1.86719 38.8086C1.91457 38.9167 1.96599 39.0218 2.01899 39.1257Z" stroke="white" stroke-width="1.5" stroke-linecap="round" stroke-linejoin="round"/>
<path d="M29.5201 16.1724C30.7683 16.4386 31.9959 16.7884 33.194 17.2194C32.3024 13.6039 29.9411 11.1445 26.3849 11.1445C25.7352 11.1448 25.0875 11.2134 24.4531 11.349C25.6629 11.6476 26.7692 12.2513 27.6593 13.0986C28.5494 13.9459 29.1915 15.0066 29.5201 16.1724Z" stroke="white" stroke-width="1.5" stroke-linecap="round" stroke-linejoin="round"/>
<path d="M13.4812 24.253C13.0681 22.4822 12.7838 20.6856 12.6304 18.8763C12.6158 18.7261 12.609 18.5787 12.5983 18.4299C11.9167 8.98833 19.0058 2.5 26.6026 2.5H22.0689C14.3523 2.5 7.91735 9.44411 8.37235 18.9558C8.41634 19.7143 8.50278 20.4699 8.63127 21.2194C9.01034 23.4353 9.60826 25.6108 10.4168 27.7161C11.1235 29.5858 12.0063 31.3886 13.0542 33.1018C13.7631 34.2572 14.5681 35.3547 15.4612 36.3835C16.855 36.1138 18.2039 35.6602 19.4704 35.0357C17.7616 33.3773 16.3557 31.4504 15.3126 29.3368C14.5134 27.7115 13.8993 26.0069 13.4812 24.253Z" stroke="white" stroke-width="1.5" stroke-linecap="round" stroke-linejoin="round"/>
<path d="M44.4484 35.1451C43.5884 31.9545 41.8263 29.0593 39.3599 26.7848C37.6557 25.1689 35.7027 23.8189 33.5706 22.783C33.3439 22.6714 33.1249 22.5557 32.8901 22.4485C31.8758 21.9908 30.8207 21.6232 29.7378 21.3501C26.1937 20.4579 22.469 20.489 18.9414 21.4403C19.1227 23.1705 19.64 24.8519 20.466 26.3963C23.0479 25.4844 25.8701 25.4312 28.4867 26.2451C29.853 26.6916 31.1257 27.3713 32.2444 28.2522C34.0428 29.6644 35.4343 31.5019 36.2842 33.5871C36.6472 34.4706 36.8712 35.4018 36.9489 36.3496C37.0875 38.3625 36.3498 40.0278 34.5685 40.6254C33.0318 41.1115 31.3886 41.1903 29.8098 40.8535C28.8413 41.633 27.8258 42.3562 26.7685 43.019C26.0511 43.4689 25.3302 43.8862 24.6058 44.2708C28.3321 46.6071 32.7387 47.7147 37.1684 47.4284C38.4744 47.3931 39.7536 47.0613 40.9028 46.4598C44.8809 44.2439 45.1293 38.0894 44.4484 35.1451Z" stroke="white" stroke-width="1.5" stroke-linecap="round" stroke-linejoin="round"/>
<path d="M34.2675 36.4131C32.9477 38.0424 31.4523 39.5309 29.8066 40.8535C31.3854 41.1903 33.0286 41.1116 34.5653 40.6254C36.3466 40.0278 37.0842 38.3625 36.9457 36.3496C36.0584 36.4701 35.1598 36.4914 34.2675 36.4131Z" stroke="white" stroke-width="1.5" stroke-linecap="round" stroke-linejoin="round"/>
<path d="M48.735 34.7659C48.5152 29.9736 46.2512 25.0016 40.5309 20.9907C39.417 20.2141 38.2489 19.5129 37.0352 18.8921C35.7954 18.2519 34.5126 17.693 33.1955 17.2191C31.9974 16.7882 30.7698 16.4384 29.5216 16.1722C26.129 15.4358 22.6133 15.407 19.2083 16.0877C18.96 16.9387 18.8345 17.8189 18.8353 18.7032C18.8159 19.6162 18.8503 20.5296 18.9381 21.4389C22.4657 20.4877 26.1905 20.4566 29.7345 21.3488C30.8174 21.6219 31.8725 21.9895 32.8868 22.4472C33.1217 22.5543 33.3406 22.6701 33.5673 22.7817C35.6994 23.8176 37.6524 25.1676 39.3566 26.7835C41.823 29.058 43.5851 31.9532 44.4451 35.1438C45.126 38.088 44.8776 44.2426 40.8995 46.4584C44.2632 44.8993 49.0356 41.3193 48.735 34.7659Z" stroke="white" stroke-width="1.5" stroke-linecap="round" stroke-linejoin="round"/>
<path d="M26.6006 2.5C19.0037 2.5 11.9147 8.98833 12.5962 18.4299C12.607 18.5787 12.6138 18.7261 12.6284 18.8763C12.7818 20.6856 13.0661 22.4822 13.4792 24.253C13.8973 26.0069 14.5114 27.7115 15.3105 29.3368C16.3537 31.4504 17.7596 33.3773 19.4684 35.0357C20.819 34.3847 22.1079 33.6201 23.3202 32.7508C23.7675 32.4323 24.1963 32.0903 24.6049 31.7263C22.9471 30.1679 21.5497 28.3695 20.4627 26.3956C19.6366 24.8512 19.1193 23.1697 18.938 21.4396C18.8502 20.5303 18.8159 19.6169 18.8352 18.7038C18.8344 17.8195 18.9599 16.9393 19.2083 16.0883C19.5364 14.9021 20.2022 13.8289 21.1298 12.991C22.0573 12.1532 23.2093 11.5844 24.4545 11.3494C25.0889 11.2137 25.7367 11.1452 26.3863 11.1449C29.9425 11.1449 32.3039 13.6043 33.1954 17.2197C34.5126 17.6936 35.7953 18.2525 37.0351 18.8927C38.2489 19.5135 39.4169 20.2147 40.5308 20.9913C40.559 20.7342 40.5873 20.477 40.61 20.2156C41.3938 11.2031 34.3172 2.5 26.6006 2.5Z" stroke="white" stroke-width="1.5" stroke-linecap="round" stroke-linejoin="round"/>
<path d="M32.2388 28.252C22.4246 44.021 6.23555 45.0244 2.45683 39.8624C2.28997 39.6287 2.14244 39.3826 2.01562 39.1264C3.02729 41.3314 4.45889 43.3322 6.23557 45.0244C9.94901 48.7007 17.3241 48.1462 24.6002 44.2707C25.3233 43.8856 26.0442 43.4683 26.7629 43.0189C27.8201 42.356 28.8357 41.6329 29.8042 40.8533C31.4499 39.5308 32.9453 38.0422 34.2651 36.413C34.9948 35.5114 35.6672 34.5676 36.2786 33.5869C35.4287 31.5018 34.0372 29.6642 32.2388 28.252Z" stroke="white" stroke-width="1.5" stroke-linecap="round" stroke-linejoin="round"/>
<path d="M28.4839 26.2437C27.6331 28.3299 26.3074 30.2038 24.6055 31.7257C24.1969 32.0897 23.7681 32.4318 23.3208 32.7503C22.1084 33.6196 20.8196 34.384 19.469 35.035C18.2025 35.6596 16.8535 36.1131 15.4597 36.3829C14.5778 36.5517 13.6736 36.5824 12.7816 36.4738C12.1593 36.4227 11.5567 36.237 11.0183 35.9305C10.48 35.624 10.0195 35.2045 9.6709 34.7029C8.4011 32.7265 8.89222 30.1314 10.4154 27.7155C9.60683 25.6102 9.0089 23.4346 8.62983 21.2188C2.69781 26.4791 -0.0815471 34.3614 1.86669 38.808C1.91738 38.9144 1.96822 39.0224 2.01849 39.1251C2.14612 39.3809 2.29361 39.627 2.45968 39.8612C6.23839 45.0232 22.4274 44.0198 32.2416 28.2509C31.1229 27.3701 29.8503 26.6902 28.4839 26.2437Z" stroke="white" stroke-width="1.5" stroke-linecap="round" stroke-linejoin="round"/>
</g>
</g>
<defs>
<clipPath id="clip0_2049_305">
<rect width="50" height="50" fill="white"/>
</clipPath>
</defs>
</svg>
