<svg width="50" height="50" viewBox="0 0 50 50" fill="none" xmlns="http://www.w3.org/2000/svg">
<path d="M1 44.5422C13.5731 43.5322 26.0423 41.494 38.2822 38.448C34.2849 30.5159 29.8776 22.7969 25.0783 15.3223C33.8377 24.3926 41.8384 34.1654 49 44.5422C33.168 47.8189 16.832 47.8189 1 44.5422Z" stroke="white" stroke-width="1.5" stroke-linecap="round" stroke-linejoin="round"/>
<path d="M25 3C19.5887 14.3868 15.1205 26.1977 11.6401 38.3142C20.5124 38.8208 29.405 38.866 38.2819 38.4494C26.0421 41.4954 13.573 43.5336 1 44.5436C6.07668 29.2028 14.2446 15.0642 25 3Z" stroke="white" stroke-width="1.5" stroke-linecap="round" stroke-linejoin="round"/>
<path d="M49.0005 44.5436C41.8389 34.1667 33.8382 24.394 25.0788 15.3236C20.2034 22.749 15.718 30.4229 11.6406 38.3142C15.1211 26.1978 19.5894 14.3869 25.0005 3C35.7559 15.0641 43.9239 29.2027 49.0005 44.5436Z" stroke="white" stroke-width="1.5" stroke-linecap="round" stroke-linejoin="round"/>
</svg>
