<svg width="40" height="40" viewBox="0 0 40 40" fill="none" xmlns="http://www.w3.org/2000/svg">
<g clip-path="url(#clip0_2049_457)">
<mask id="mask0_2049_457" style="mask-type:luminance" maskUnits="userSpaceOnUse" x="0" y="0" width="40" height="40">
<path d="M40 0H0V40H40V0Z" fill="white"/>
</mask>
<g mask="url(#mask0_2049_457)">
<path d="M23.6283 19.5655C21.2635 18.8323 18.7359 18.8323 16.3711 19.5655C14.9857 19.9889 13.6681 20.6127 12.4592 21.4176C9.66615 23.2525 7.04492 26.1327 4.79884 30.0794L3.13643 33.0004L1 36.7545L5.28151 36.7596L8.74148 36.7637C13.2498 36.769 17.0305 35.9097 19.9997 34.3753C18.6992 33.7135 17.501 32.8636 16.4428 31.8522C13.9584 32.6672 11.3571 33.0575 8.74582 33.0071L7.41795 33.0055L8.01643 31.9539C9.28756 29.6225 10.9378 27.5244 12.898 25.7475C13.9014 24.8603 15.0323 24.1326 16.2521 23.5894C17.4297 23.0508 18.7073 22.7722 19.9997 22.7722C21.2921 22.7722 22.5697 23.0508 23.7473 23.5894C23.9133 22.2499 23.8732 20.8925 23.6283 19.5655Z" stroke="white" stroke-width="1.5" stroke-linecap="round" stroke-linejoin="round"/>
<path d="M27.541 21.4175C27.4126 17.9888 26.2539 14.1637 23.9431 10.125L22.1455 6.98339L20.0005 3.23438L17.8554 6.98336L16.0578 10.125C13.747 14.1637 12.5883 17.9888 12.46 21.4175C13.6688 20.6126 14.9864 19.9887 16.3719 19.5654C16.8974 16.8949 17.8785 14.3373 19.2711 12.0071L20.0005 10.7323L20.7299 12.0071C22.1224 14.3373 23.1035 16.8949 23.629 19.5654C23.8739 20.8924 23.9141 22.2498 23.7481 23.5892C23.5992 24.8617 23.1889 26.0885 22.5435 27.191C21.8981 28.2935 21.0319 29.2473 20.0005 29.9911C21.0857 30.7908 22.2851 31.4183 23.5573 31.8521C25.2951 30.2046 26.526 28.0849 27.1022 25.7474C27.4559 24.3334 27.6038 22.8747 27.541 21.4175Z" stroke="white" stroke-width="1.5" stroke-linecap="round" stroke-linejoin="round"/>
<path d="M36.8644 33.0008L35.202 30.0798C32.9559 26.133 30.3347 23.2529 27.5416 21.418C27.6044 22.8752 27.4566 24.3339 27.1028 25.748C29.063 27.5248 30.7132 29.6229 31.9844 31.9543L32.5828 33.0059L31.255 33.0075C28.6437 33.0579 26.0424 32.6676 23.558 31.8526C22.2857 31.4188 21.0863 30.7913 20.0011 29.9917C18.9697 29.2479 18.1035 28.2941 17.4581 27.1916C16.8127 26.0891 16.4024 24.8622 16.2535 23.5898C15.0337 24.133 13.9028 24.8607 12.8994 25.748C13.4756 28.0855 14.7065 30.2052 16.4442 31.8526C17.5024 32.864 18.7006 33.7139 20.0011 34.3757C22.9703 35.9101 26.751 36.7694 31.2593 36.7641L34.7193 36.76L39.0008 36.7549L36.8644 33.0008Z" stroke="white" stroke-width="1.5" stroke-linecap="round" stroke-linejoin="round"/>
</g>
</g>
<defs>
<clipPath id="clip0_2049_457">
<rect width="40" height="40" fill="white"/>
</clipPath>
</defs>
</svg>
