<svg width="50" height="50" viewBox="0 0 50 50" fill="none" xmlns="http://www.w3.org/2000/svg">
<path d="M3.75 33.8574L6.56412 38.6446H16.9773H22.3394L25.154 33.8574H3.75Z" stroke="white" stroke-width="1.5" stroke-linecap="round" stroke-linejoin="round"/>
<path d="M22.3175 29.5603H17.2664H11.6376L8.95659 25L3.75 33.8564H25.154L27.6796 29.5603H22.3175Z" stroke="white" stroke-width="1.5" stroke-linecap="round" stroke-linejoin="round"/>
<path d="M30.3638 25L27.6827 29.5603L25.1572 33.8564L22.3426 38.6436H16.9805L22.1871 47.5L32.8893 29.2961L30.3638 25Z" stroke="white" stroke-width="1.5" stroke-linecap="round" stroke-linejoin="round"/>
<path d="M6.56412 11.3555L3.75 16.1428L8.95659 24.9992L11.6376 29.5595H17.2664L6.56412 11.3555Z" stroke="white" stroke-width="1.5" stroke-linecap="round" stroke-linejoin="round"/>
<path d="M27.8136 2.5L17.1113 20.7039L19.6369 25L22.3179 20.4397L24.8435 16.1436L27.6581 11.3564H33.0202L27.8136 2.5Z" stroke="white" stroke-width="1.5" stroke-linecap="round" stroke-linejoin="round"/>
<path d="M24.84 16.1445L22.3145 20.4405H27.6765H32.7276H38.3564L41.0374 25.0009L46.244 16.1445H24.84Z" stroke="white" stroke-width="1.5" stroke-linecap="round" stroke-linejoin="round"/>
<path d="M19.6387 24.9992L17.1132 20.7031L14.2985 15.9159L16.9796 11.3555H6.56641L17.2687 29.5595H22.3197L19.6387 24.9992Z" stroke="white" stroke-width="1.5" stroke-linecap="round" stroke-linejoin="round"/>
<path d="M43.4369 38.6434L32.7347 20.4395H27.6836L30.3646 24.9998L32.8902 29.2959L35.7048 34.0831L33.0238 38.6434H43.4369Z" stroke="white" stroke-width="1.5" stroke-linecap="round" stroke-linejoin="round"/>
<path d="M41.0422 24.9998L38.3612 20.4395H32.7324L43.4347 38.6434L46.2488 33.8562L41.0422 24.9998Z" stroke="white" stroke-width="1.5" stroke-linecap="round" stroke-linejoin="round"/>
<path d="M22.1845 2.5L16.9779 11.3564L14.2969 15.9167L17.1115 20.7039L27.8137 2.5H22.1845Z" stroke="white" stroke-width="1.5" stroke-linecap="round" stroke-linejoin="round"/>
<path d="M43.4356 11.3555H33.0224H27.6603L24.8457 16.1428H46.2497L43.4356 11.3555Z" stroke="white" stroke-width="1.5" stroke-linecap="round" stroke-linejoin="round"/>
<path d="M32.8878 29.2969L22.1855 47.5009H27.8148L33.0214 38.6445L35.7024 34.0842L32.8878 29.2969Z" stroke="white" stroke-width="1.5" stroke-linecap="round" stroke-linejoin="round"/>
</svg>
