<svg width="52" height="52" viewBox="0 0 52 52" fill="none" xmlns="http://www.w3.org/2000/svg">
<g clip-path="url(#clip0_2049_409)">
<mask id="mask0_2049_409" style="mask-type:luminance" maskUnits="userSpaceOnUse" x="0" y="0" width="52" height="52">
<path d="M52 0H0V52H52V0Z" fill="white"/>
</mask>
<g mask="url(#mask0_2049_409)">
<path d="M29.5947 9.25574L34.8461 12.9707C36.4017 14.0747 37.567 15.6182 38.1823 17.3897C38.7975 19.1611 38.8326 21.0737 38.2827 22.8653L33.5911 36.9237C35.5151 36.8761 37.3763 36.2501 38.9175 35.1323C40.4587 34.0145 41.6037 32.4601 42.1942 30.6839L44.2001 24.6731C45.1857 21.7241 45.1865 18.5487 44.2023 15.5993C43.2181 12.6498 41.2991 10.0767 38.7187 8.24643L35.5916 6.0343C32.807 4.06258 29.4482 3 26.0002 3C22.5522 3 19.1934 4.06258 16.4089 6.0343L11.8555 9.25536C14.4306 7.43214 17.5366 6.44964 20.7251 6.44971C23.9137 6.44978 27.0197 7.43241 29.5947 9.25574Z" stroke="white" stroke-width="1.5" stroke-linecap="round" stroke-linejoin="round"/>
<path d="M10.0213 18.0156L15.2728 14.3007C16.8258 13.2018 18.6933 12.5994 20.6157 12.5771C22.5381 12.5547 24.42 13.1136 25.9997 14.1761L38.2822 22.8647C38.8321 21.0732 38.797 19.1606 38.1818 17.3891C37.5665 15.6177 36.4012 14.0741 34.8456 12.9701L29.5942 9.25526C27.0192 7.43193 23.9132 6.44929 20.7246 6.44922C17.5361 6.44915 14.43 7.43165 11.855 9.25487L8.72776 11.467C5.93725 13.4461 3.862 16.2285 2.79765 19.4179C1.7333 22.6074 1.73414 26.0412 2.80003 29.2302L4.53923 34.4418C3.55377 31.4928 3.55317 28.3174 4.5375 25.3681C5.52183 22.4187 7.4409 19.8457 10.0213 18.0156Z" stroke="white" stroke-width="1.5" stroke-linecap="round" stroke-linejoin="round"/>
<path d="M44.201 24.6727L42.1951 30.6835C41.6046 32.4597 40.4596 34.0141 38.9184 35.1319C37.3772 36.2497 35.516 36.8757 33.592 36.9233H18.4102C19.044 38.6852 20.2268 40.2127 21.7949 41.2944C23.3631 42.3761 25.2391 42.9586 27.1636 42.9615H33.6548C36.8466 42.9577 39.9551 41.973 42.5336 40.149C45.1122 38.325 47.0282 35.7554 48.0064 32.8094L49.2008 29.2303C50.2667 26.0413 50.2675 22.6075 49.2031 19.4181C48.1388 16.2286 46.0635 13.4462 43.273 11.4672L38.7196 8.24609C41.3 10.0763 43.219 12.6494 44.2032 15.5989C45.1874 18.5483 45.1866 21.7237 44.201 24.6727Z" stroke="white" stroke-width="1.5" stroke-linecap="round" stroke-linejoin="round"/>
<path d="M12.5331 38.8469L10.5272 32.836C9.93364 31.0576 9.92186 29.1446 10.4935 27.3594C11.0651 25.5743 12.1922 24.0042 13.7203 22.8645L26.0028 14.1758C24.423 13.1134 22.5412 12.5545 20.6188 12.5768C18.6964 12.5991 16.8289 13.2016 15.2759 14.3004L10.0244 18.0154C7.44395 19.8455 5.52488 22.4185 4.54055 25.3678C3.55621 28.3172 3.55681 31.4925 4.54226 34.4415L5.7368 38.0211C6.79446 41.2068 8.86628 43.9855 11.6546 45.9579C14.443 47.9304 17.8044 48.9952 21.2559 48.9993H26.884C23.6923 48.9953 20.5839 48.0106 18.0055 46.1865C15.427 44.3624 13.5112 41.7928 12.5331 38.8469Z" stroke="white" stroke-width="1.5" stroke-linecap="round" stroke-linejoin="round"/>
<path d="M46.2658 38.0218L48.0051 32.8097C47.0269 35.7557 45.1109 38.3253 42.5324 40.1493C39.9538 41.9733 36.8454 42.958 33.6535 42.9618H27.1623C25.2379 42.959 23.3618 42.3764 21.7937 41.2947C20.2255 40.213 19.0428 38.6855 18.4089 36.9236L13.7173 22.8652C12.1893 24.0049 11.0622 25.575 10.4906 27.3602C9.91893 29.1453 9.93072 31.0583 10.5243 32.8367L12.5302 38.8476C13.5083 41.7935 15.4241 44.3631 18.0025 46.1872C20.581 48.0113 23.6893 48.996 26.8811 49H30.7467C34.1982 48.9959 37.5596 47.9312 40.348 45.9587C43.1363 43.9862 45.2081 41.2075 46.2658 38.0218Z" stroke="white" stroke-width="1.5" stroke-linecap="round" stroke-linejoin="round"/>
</g>
</g>
<defs>
<clipPath id="clip0_2049_409">
<rect width="52" height="52" fill="white"/>
</clipPath>
</defs>
</svg>
